<?xml version="1.0" encoding="UTF-8" standalone="no"?>
<!-- Created with Inkscape (http://www.inkscape.org/) -->

<svg
   xmlns:dc="http://purl.org/dc/elements/1.1/"
   xmlns:cc="http://creativecommons.org/ns#"
   xmlns:rdf="http://www.w3.org/1999/02/22-rdf-syntax-ns#"
   xmlns:svg="http://www.w3.org/2000/svg"
   xmlns="http://www.w3.org/2000/svg"
   xmlns:sodipodi="http://sodipodi.sourceforge.net/DTD/sodipodi-0.dtd"
   xmlns:inkscape="http://www.inkscape.org/namespaces/inkscape"
   id="svg27175"
   version="1.1"
   inkscape:version="0.48.1 "
   width="225"
   height="271.25"
   xml:space="preserve"
   sodipodi:docname="Duckling_1.pdf"><metadata
     id="metadata27181"><rdf:RDF><cc:Work
         rdf:about=""><dc:format>image/svg+xml</dc:format><dc:type
           rdf:resource="http://purl.org/dc/dcmitype/StillImage" /><dc:title></dc:title></cc:Work></rdf:RDF></metadata><defs
     id="defs27179" /><sodipodi:namedview
     pagecolor="#ffffff"
     bordercolor="#666666"
     borderopacity="1"
     objecttolerance="10"
     gridtolerance="10"
     guidetolerance="10"
     inkscape:pageopacity="0"
     inkscape:pageshadow="2"
     inkscape:window-width="640"
     inkscape:window-height="480"
     id="namedview27177"
     showgrid="false"
     inkscape:zoom="1.0728111"
     inkscape:cx="112.5"
     inkscape:cy="135.625"
     inkscape:window-x="397"
     inkscape:window-y="96"
     inkscape:window-maximized="0"
     inkscape:current-layer="g27183" /><g
     id="g27183"
     inkscape:groupmode="layer"
     inkscape:label="Duckling_1"
     transform="matrix(1.25,0,0,-1.25,0,271.25)"><g
       id="g27185"
       transform="scale(0.24,0.24)"><path
         d="m 237.254,897.973 c 4.332,1.636 7.891,4.332 12.605,4.523 -0.961,-12.414 13.954,-7.219 17.125,-17.133 6.45,-3.558 17.321,8.086 18.86,-4.523 8.66,-3.367 9.91,-17.133 21.648,-14.34 10.68,-12.801 25.403,-23.293 28.77,-39.559 2.019,-5.582 3.754,-10.875 5.578,-16.168 -2.402,-2.406 -6.539,0.77 -8.082,-2.793 0.387,-2.5 1.543,-5.675 4.523,-6.253 1.735,-6.352 3.754,-12.223 4.332,-18.961 -0.773,0.191 -1.254,-0.383 -1.828,-0.961 -0.965,0.961 -1.926,2.597 -3.562,1.73 -4.52,-3.656 0.675,-8.086 1.828,-11.551 -0.77,-7.504 1.156,-16.168 3.562,-23.48 l 0,0 -4.332,-3.563 0,0 c -0.578,0.383 -1.058,1.25 -2.019,0.868 -3.367,-2.024 1.25,-5.2 0.961,-8.086 -4.328,-7.121 5.195,-12.993 -4.52,-18 0.192,-9.239 3.367,-15.11 1.055,-24.348 -2.981,1.348 -5,4.906 -9.043,3.754 -3.559,-2.793 -0.481,-8.473 -2.789,-11.84 -3.946,-0.191 -8.469,0.961 -10.871,-3.562 2.211,-5.485 0.383,-11.258 -1.735,-16.168 -8.465,5.488 -3.367,-7.7 -9.812,-7.313 -1.828,-7.797 -10.68,-3.273 -11.645,-11.551 -4.136,0 -4.906,-4.718 -7.312,-7.316 0,-8.856 2.406,-17.133 10.875,-21.656 10.004,-2.981 19.242,-8.66 30.5,-8.852 29.73,-17.133 67.64,-5.68 95.347,-28.008 51.188,-13.957 85.633,-58.617 120.754,-99.039 9.621,-8.758 25.594,-1.73 36.754,-6.16 22.032,-3.367 46.086,-6.93 67.543,-14.437 32.711,-2.887 60.039,11.453 90.922,15.304 5.391,-1.926 12.606,-4.043 13.375,-10.781 -1.73,-10.008 -3.465,-19.824 -5.293,-29.738 -7.695,-26.758 -34.058,-35.614 -50.414,-54.957 -1.734,-15.11 -15.301,-25.313 -17.129,-40.52 -3.269,-8.469 -9.043,-13.957 -14.336,-21.656 -5.484,-2.02 -6.254,-8.66 -10.871,-12.609 -11.16,-8.469 -17.129,-18.286 -27.902,-27.813 -14.336,-10.781 -30.117,-21.656 -44.934,-33.207 -14.914,-9.527 -26.363,-22.906 -41.469,-29.738 -8.468,-7.699 -21.648,-11.071 -32.328,-12.61 -5.293,-15.207 -7.504,-31.183 -15.394,-45.14 -5.871,-10.778 9.719,-13.953 4.617,-23.387 -1.441,-9.336 -7.121,-20.691 -16.355,-25.984 C 458.84,92.582 445.852,72.5625 439.789,49.8516 434.402,46.0977 434.98,39.6484 432.668,34.7383 l 0,0 -15.395,-20.8828 0,0 C 405.441,13.6602 409,30.793 396.59,30.9844 371.188,41.1875 347.711,25.8828 327.41,13.082 322.887,9.90625 321.926,0.476563 313.844,4.03516 c -8.469,9.24214 4.519,13.95704 2.789,22.42574 6.254,5.293 4.523,12.6094 4.523,18.8672 -2.793,2.9805 -3.945,7.8907 -9.047,7.3125 l -7.312,0 0,0 c -2.789,5.293 6.062,10.6836 -0.77,12.6094 -4.906,-4.5234 -8.273,-17.1328 -16.164,-15.3984 -3.367,4.3281 -3.558,9.7187 -10.004,11.8359 -11.836,6.1602 -16.55,-10.2031 -27.039,-13.5703 -7.312,-3.7539 -9.621,-13.3789 -18.855,-12.6094 -8.082,10.8789 4.137,26.1797 9.043,37.8281 0.383,10.9688 -11.641,16.7461 -19.918,21.6524 7.508,10.7817 19.148,17.5197 30.695,24.2537 22.512,11.551 44.547,24.543 69.371,30.703 14.719,6.836 38.582,10.973 39.449,32.243 5.485,8.855 -5.39,9.335 -9.718,11.839 -21.071,4.137 -37.43,18.961 -56.77,26.95 -26.363,14.242 -41.851,40.613 -64.945,57.746 -8.656,6.929 -10.969,19.925 -21.453,27.816 -5.293,10.395 -11.067,18.285 -16.36,28.875 -14.336,2.789 -31.461,-3.562 -40.312,10.684 -13.567,-0.196 -15.012,19.632 -28,18.863 -8.852,10.297 -22.227,14.246 -21.649,29.738 -23.5738,22.043 -14.7183,58.133 -11.6402,86.336 10.8712,50.047 48.8752,95.379 93.5192,122.52 -6.062,7.316 3.946,13.187 1.828,19.922 -8.273,3.371 -17.125,5.488 -25.207,9.82 -3.367,-0.195 -3.175,2.789 -6.351,3.558 -15.106,-5.871 -28.863,-15.015 -44.067,-21.656 -22.8003,-18.285 -54.937,-25.984 -83.7066,-19.73 -7.6015,7.894 -29.24996,5.101 -24.15231,20.695 2.3125,4.524 7.41016,2.215 10.58591,5.293 32.1368,22.137 65.8125,48.699 81.1094,83.926 -5.0976,25.023 -9.2383,52.551 -3.5586,76.422 2.9805,28.968 10.1016,58.133 25.2072,82.867 5.773,2.984 1.637,11.066 8.851,11.644 l 0,0 3.754,-3.558 0,0 c 4.907,7.504 15.2,6.93 19.723,15.398 0.961,-0.769 2.789,-3.371 4.523,-3.754 7.504,-1.156 11.258,18.481 14.336,3.754 7.504,-4.523 10.489,8.278 18.184,9.047 3.656,-11.453 11.738,1.731 17.898,2.598 1.344,-1.25 0.77,-6.352 4.52,-5.391 2.984,3.371 6.254,7.895 11.644,9.145 -0.675,-1.828 0.961,-2.598 1.922,-3.754 5.293,-1.25 12.797,12.129 14.336,0.965 l 0,0 2.598,-2.793 0,0 z m 231.207,-697.594 0,0 c -1.731,-0.191 -4.137,0.578 -4.328,-1.828 -0.965,1.637 -2.887,0.578 -4.524,0.769 -4.714,-6.832 -13.179,-4.715 -18.859,-9.047 -17.125,1.25 -33.867,-9.433 -51.379,-4.332 l 0,0 -1.828,-3.753 0,0 c 0.387,-9.239 -9.813,-25.407 5.391,-25.985 8.656,-3.754 16.453,-13.379 16.257,-21.656 11.836,2.019 22.903,6.93 36.082,6.351 11.161,9.817 10.969,26.18 17.895,38.79 1.156,7.023 3.754,13.57 5.293,20.691"
         style="fill:#231f20;fill-opacity:1;fill-rule:nonzero;stroke:none"
         id="path27187" /><path
         d="m 226.672,893.449 c 0.578,-1.926 -2.02,-7.508 2.5,-9.047 5.293,0.77 11.644,9.239 16.359,0.961 3.75,-0.578 10.199,2.024 8.852,-4.523 1.347,-3.559 7.312,-0.383 10.004,-2.695 3.945,-2.79 8.66,-1.059 12.605,0.964 4.328,-3.175 3.946,-10.875 10.871,-10.875 0.387,-3.949 1.926,-7.027 6.254,-8.086 12.992,4.524 17.512,-9.433 25.211,-17.132 5.098,-6.063 8.465,-12.993 9.91,-20.692 1.539,-1.156 1.922,-2.695 1.731,-4.523 -5.293,-0.774 -9.043,2.406 -12.606,-2.696 2.602,-8.472 12.797,-11.648 14.34,-20.695 -1.543,1.543 -4.332,0.77 -6.258,0.965 -4.519,-9.047 0.774,-18.672 5.489,-26.18 2.593,-6.547 -6.063,-1.925 -6.258,-7.121 4.91,-8.472 2.504,-16.554 4.332,-26.179 -2.406,1.828 -6.543,0.382 -7.121,-2.696 2.984,-7.89 4.906,-16.168 5.293,-25.219 -2.309,0.965 -3.946,3.754 -7.024,2.696 -7.121,-2.887 -1.636,-10.778 -4.523,-15.301 -2.981,-0.578 -7.313,1.539 -9.141,-1.828 -0.383,-6.449 -0.383,-9.82 -1.73,-16.074 -4.137,-0.481 -8.082,-2.407 -9.817,-6.352 l 0,-3.562 c -2.789,2.406 -5.289,-0.77 -7.312,-2.696 1.347,-3.367 -1.922,-3.175 -3.559,-4.617 -6.832,-7.223 -14.722,-15.496 -13.566,-26.949 4.332,-2.313 2.597,-8.856 5.484,-12.609 8.852,-9.625 21.457,-10.59 32.328,-16.168 21.071,-2.122 38.004,-13.766 59.368,-14.536 18.281,0.77 31.652,-10.203 47.625,-15.207 46.281,-12.32 76.781,-54.859 109.878,-89.125 2.118,-7.41 9.239,-12.125 15.297,-16.07 5.004,1.731 8.469,0.191 13.473,1.731 l 0,0 1.922,-1.731 0,0 c 30.695,-2.602 60.808,-4.332 89,-16.172 23.957,0.387 52.726,8.856 77.359,13.379 5.676,-4.715 10.871,5.871 14.528,-3.562 3.558,-14.723 -15.106,-5.485 -20.782,-12.606 -8.082,-0.769 -16.742,-1.156 -21.554,-8.086 8.949,-7.797 19.531,5.582 31.558,3.563 2.504,-1.926 5.68,0.191 8.082,1.828 l 0,0 -2.789,-10.875 0,0 c -10.777,-5.488 -24.246,-7.703 -35.023,-8.086 -2.789,-1.539 -4.328,-3.563 -3.75,-7.219 4.711,-3.754 5.289,-0.676 10.004,0.961 l 0,0 20.687,3.563 0,0 c -7.504,-10.875 -19.051,-14.821 -31.461,-15.207 -1.347,-0.961 -3.371,-1.54 -3.562,-3.754 -0.383,-1.731 0.191,-3.368 1.734,-4.524 4.52,-1.539 6.348,3.754 10.871,2.02 -4.715,-9.336 -15.586,-7.504 -21.648,-15.399 -7.699,0.387 -13.375,-4.523 -21.649,-2.789 -2.019,-1.734 -3.754,-4.719 -1.828,-7.027 7.504,-6.16 16.164,2.695 22.516,-2.793 -8.082,-14.34 -9.336,-28.391 -17.996,-42.348 -20.012,-25.406 -42.043,-47.64 -67.446,-64.004 -13.855,-9.625 -28.574,-21.656 -41.371,-33.3 -7.312,-0.383 -12.027,-6.45 -18.09,-9.817 -3.175,-6.351 -11.835,-2.598 -15.203,-9.816 -14.527,-10.684 -37.621,-2.215 -53.109,-7.317 -9.527,-1.73 -20.496,12.032 -28,1.735 1.156,-6.641 7.699,-6.641 12.605,-8.856 -45.894,-12.992 -100.257,-9.816 -137.492,17.903 -46.859,25.89 -81.687,63.039 -109.109,107.218 -8.274,7.219 9.043,11.547 0,17.903 -8.852,0.578 -22.035,-9.914 -25.981,4.523 0.579,2.309 -2.113,4.137 -3.75,4.524 -5.484,-3.176 -3.175,-6.356 -1.73,-10.879 -4.141,-1.922 -7.891,3.179 -11.645,5.586 -7.89,3.269 -2.308,19.824 -13.566,14.339 l 0,0 0.961,-7.316 0,0 c -4.711,-2.117 -3.559,5.391 -6.254,7.316 -1.828,9.239 -0.191,18.094 -1.828,25.985 -1.539,1.637 -4.328,0.769 -6.254,0.965 l 0,0 -1.828,-1.735 1.828,-21.656 0,0 c -6.348,14.148 -10.102,30.703 -10.871,45.91 -1.539,2.117 -3.559,3.082 -6.254,2.695 -3.176,-6.253 1.926,-13.761 0.77,-21.656 0.578,-7.023 2.597,-13.57 5.484,-19.633 -4.137,5.485 -10.582,7.797 -14.336,13.379 -0.191,13.379 -4.523,28.102 0.769,40.52 l 0,0 -5.292,3.562 0,0 c -5.9653,-4.91 -3.559,-13.187 -5.4849,-19.734 -8.7539,24.449 -6.9258,53.418 1.9259,78.348 5.871,30.125 28,55.918 50.418,78.152 11.832,10.488 24.148,21.27 36.754,28.008 2.984,10.777 5.773,21.652 4.523,34.262 -8.851,6.449 -23.765,1.347 -28.672,12.609 0.77,6.832 0.961,15.109 6.25,19.633 0.578,3.175 -1.152,7.316 -1.922,10.875 -11.835,10.972 -31.558,4.14 -43.105,15.304 l 0,0 -24.246,18.961 0,0 c -7.6954,40.52 -7.1212,80.75 7.121,118.77 2.309,13.762 8.66,28.293 19.82,35.992 9.235,-3.367 7.313,11.07 15.2,12.609 0.578,-1.73 2.312,-4.523 4.523,-6.253 6.93,0.578 8.082,9.046 13.566,10.777 -1.347,-3.176 2.215,-4.332 3.563,-6.254 7.117,-0.578 11.449,16.555 17.125,6.254 l 0,0 2.789,-1.731 10.777,9.817 0,0 c 0.578,-2.598 -1.925,-7.699 2.598,-8.086 7.41,-0.578 10.777,17.324 18.859,6.351 5.485,-1.25 4.907,6.45 10.102,6.258 l 0,0"
         style="fill:#fff200;fill-opacity:1;fill-rule:nonzero;stroke:none"
         id="path27189" /><path
         d="m 480.875,342.535 27.133,0 c 0,1.348 1.344,1.348 2.691,1.348 0,2.695 1.348,0 1.348,2.695 4.137,0 12.219,1.348 16.355,2.695 0,-1.347 1.348,-1.347 2.696,-1.347 0,2.789 8.179,4.137 9.527,5.484 l 0,1.348 c 1.344,1.347 5.387,4.043 6.734,5.39 l 21.743,1.348 c 0,1.348 -1.344,5.484 -1.344,8.18 2.691,2.695 6.734,4.043 9.523,5.39 l 0,1.446 c 2.696,1.347 20.301,2.695 21.649,2.695 0,1.344 -1.348,4.039 -2.696,4.039 1.348,2.695 2.696,2.695 4.043,4.043 l 0,1.348 c 1.348,0 4.137,1.445 4.137,2.793 1.348,0 2.695,0 2.695,1.347 6.735,0 13.567,5.387 20.301,5.387 l 1.442,1.348 0,5.488 c 2.695,2.695 5.39,5.391 9.429,5.391 0,2.691 9.528,4.136 12.219,4.136 0,8.086 9.527,13.571 9.527,17.614 l 2.696,0 1.343,1.347 c 1.348,2.696 -1.343,9.528 0,12.223 l 1.348,0 0,2.695 c 1.445,0 5.484,4.043 5.484,4.043 2.696,0 5.391,1.442 6.735,1.442 l 1.347,1.347 c 0,1.348 1.446,2.696 2.793,2.696 l 0,0.097 c 14.047,2.789 28.383,6.352 41.469,8.758 5.676,-4.715 10.871,5.871 14.528,-3.562 3.558,-14.723 -15.106,-5.485 -20.782,-12.606 -8.082,-0.769 -16.742,-1.156 -21.554,-8.086 8.949,-7.797 19.531,5.582 31.558,3.563 2.504,-1.926 5.68,0.191 8.082,1.828 l 0,0 -2.789,-10.875 0,0 c -10.777,-5.488 -24.246,-7.703 -35.023,-8.086 -2.789,-1.539 -4.328,-3.563 -3.75,-7.219 4.711,-3.754 5.289,-0.676 10.004,0.961 l 0,0 20.687,3.563 0,0 c -7.504,-10.875 -19.051,-14.821 -31.461,-15.207 -1.347,-0.961 -3.371,-1.54 -3.562,-3.754 -0.383,-1.731 0.191,-3.368 1.734,-4.524 4.52,-1.539 6.348,3.754 10.871,2.02 -4.715,-9.336 -15.586,-7.504 -21.648,-15.399 -7.699,0.387 -13.375,-4.523 -21.649,-2.789 -2.019,-1.734 -3.754,-4.719 -1.828,-7.027 1.059,-0.867 2.211,-1.445 3.27,-1.828 -0.289,-2.598 -1.25,-5.778 -1.25,-8.086 -4.039,0 -10.871,-2.696 -16.262,-2.696 l -2.789,-2.695 0,-4.137 c -1.348,-1.347 -2.695,-2.695 -4.039,-2.695 0,-6.738 -18.957,-6.738 -23.094,-6.738 0,-1.442 1.348,-4.137 1.348,-6.832 l -1.348,-1.348 c -8.082,0 -20.301,-6.832 -31.172,-6.832 1.344,0 1.344,-8.086 1.344,-9.433 -9.523,-4.137 -20.395,-5.485 -32.617,-5.485 1.347,0 1.347,-1.347 1.347,-2.695 -6.734,-2.695 -21.648,-6.836 -29.824,-6.836 0,-2.695 -12.222,0 -13.566,0 -1.348,1.445 -9.528,4.141 -12.223,6.836 l -10.871,1.348 0,1.347 -2.695,0 -1.344,2.692 c -2.695,0 -4.043,1.347 -5.391,1.347 l 0,2.793 c -2.789,0 0,1.348 -2.789,1.348 0,4.043 1.348,9.527 1.348,12.223 1.441,0 5.484,2.695 6.832,1.347 l 0,0 z m 197.914,33.688 c 0.191,0.191 0.289,0.382 0.387,0.574 -3.367,2.891 -7.313,1.832 -11.453,1.062 1.925,-1.254 6.738,-1.543 11.066,-1.636"
         style="fill:#edc914;fill-opacity:1;fill-rule:nonzero;stroke:none"
         id="path27191" /><path
         d="m 508.008,322.133 c 12.219,5.484 25.785,4.137 39.351,4.137 0,1.347 4.039,5.39 4.039,6.738 l 1.446,0 c 0,0 0,2.695 2.691,2.695 0,2.789 4.043,4.137 4.043,5.485 4.043,0 10.871,1.347 16.262,1.347 0,4.043 6.828,8.18 8.176,9.528 l 0,1.347 c 1.347,1.348 4.043,1.348 5.39,4.043 5.485,0 12.219,1.348 17.703,1.348 1.348,2.695 13.567,10.875 13.567,14.918 l 1.347,1.347 c 8.176,0 14.911,5.485 21.743,5.485 0,5.39 8.082,6.738 8.082,10.879 2.793,0 12.218,10.875 13.566,12.222 l 1.445,0 4.039,8.082 c 1.348,0 4.043,1.348 4.043,2.793 l 2.692,0 c 0,2.696 5.484,4.043 6.832,4.043 0,0.578 4.812,1.348 10.488,2.118 -0.383,0.289 -0.867,0.578 -1.441,1.058 -0.578,3.656 0.961,5.68 3.75,7.219 10.777,0.383 24.246,2.598 35.023,8.086 l 0,0 2.789,10.875 0,0 c -2.402,-1.637 -5.578,-3.754 -8.082,-1.828 -12.027,2.019 -22.609,-11.36 -31.558,-3.563 4.812,6.93 13.472,7.317 21.554,8.086 5.676,7.121 24.34,-2.117 20.782,12.606 -3.657,9.433 -8.852,-1.153 -14.528,3.562 -6.64,-1.25 -13.664,-2.695 -20.785,-4.332 -0.191,-1.441 -0.383,-2.887 -0.383,-4.523 -5.39,-5.485 -8.082,-10.875 -8.082,-17.614 l 4.039,0 0,-2.789 c -1.347,0 -4.039,-2.695 -5.386,-2.695 0,-1.348 -1.446,-4.043 -2.79,-4.043 0,-2.695 -1.347,-4.141 -1.347,-6.832 2.691,0 0,-1.348 2.691,-1.348 l 0,-2.695 1.446,-1.348 6.734,0 c 1.348,1.348 2.695,2.696 4.043,2.696 0,2.117 0.863,0.961 1.25,1.636 l -1.156,-0.195 0,0 c -1.059,-0.383 -2.02,-0.863 -2.789,-1.348 6.062,0.774 11.64,1.254 12.218,1.254 l -2.695,0 0,1.25 13.953,2.407 0,0 c -7.504,-10.875 -19.051,-14.821 -31.461,-15.207 -1.347,-0.961 -3.371,-1.54 -3.562,-3.754 -0.383,-1.731 0.191,-3.368 1.734,-4.524 4.52,-1.539 6.348,3.754 10.871,2.02 -4.715,-9.336 -15.586,-7.504 -21.648,-15.399 -4.235,0.196 -7.793,-1.152 -11.645,-2.215 -2.019,0.098 -3.941,0.098 -5.769,0.098 -0.289,-0.289 -0.676,-0.672 -1.059,-1.059 -1.059,0.098 -2.117,0.192 -3.176,0.387 -1.636,-1.445 -3.078,-3.66 -2.504,-5.679 l 0,-4.426 -1.343,-1.446 -2.793,0 c 0,-1.347 -4.039,-2.695 -4.039,-4.043 l -2.696,0 -1.347,-1.347 0,-2.696 c -2.692,0 -4.137,-1.347 -6.832,-1.347 0,-1.348 -1.344,-4.137 -1.344,-5.485 l -1.348,-1.347 c -6.832,0 -17.609,-4.043 -25.785,-4.043 l -1.348,-1.348 0,-4.137 -1.347,0 -1.348,-6.738 -1.348,-1.347 c -6.832,0 -17.703,-2.696 -24.437,-2.696 0,-10.875 -15.008,-15.015 -24.438,-15.015 l 0,-2.692 c -1.347,0 -2.793,-2.695 -2.793,-4.043 l -29.824,0 c 0,-2.695 -1.347,0 -1.347,-2.695 -2.696,0 -13.567,-1.348 -16.262,0 l 0,1.348 -2.695,0 c 0,1.347 -1.442,2.695 -1.442,4.043 l 1.442,1.347 6.738,0 0,1.348"
         style="fill:#d7bb26;fill-opacity:1;fill-rule:nonzero;stroke:none"
         id="path27193" /><path
         d="m 126.605,494.121 c 0,-3.176 -0.769,-4.039 -1.539,-6.351 -3.175,-9.528 0,-22.231 0,-31.762 1.539,0 3.176,0.867 4.715,0.867 l 0,-15.977 5.582,0 c 0,-2.308 0.77,-6.351 0.77,-8.66 l 0.867,-0.867 3.172,0 c 0,-12.707 9.527,-23.773 9.527,-35.707 0.77,0 4.715,0 4.715,0.77 0.77,0 1.637,-0.77 2.406,-1.539 l 0,-2.407 1.539,-0.773 0,-1.633 c 0,0 2.407,-2.406 2.407,-3.176 0.863,0 3.172,-2.406 3.172,-2.406 l 0,-1.543 2.406,-2.406 c 1.636,0 3.945,-0.77 5.582,-0.77 0,-0.769 0.769,-2.406 0.769,-3.176 l 4.809,0 c 0,-0.867 0.769,-1.636 1.543,-2.406 2.402,0 6.348,-0.769 8.754,-0.769 l 0.769,-1.637 c 3.176,0 7.985,0.77 10.391,0.77 0.769,-0.77 8.66,-0.77 8.66,-1.54 l 18.281,0.77 c 0,-2.406 8.754,-1.539 9.524,-1.539 8.758,1.539 27.039,3.945 33.387,0 0,-0.867 -1.54,-3.176 -2.403,-4.043 -3.176,0 -7.121,-1.539 -11.066,-1.539 0,-9.527 -11.93,-9.527 -18.281,-9.527 0,-0.77 -0.77,-2.407 -0.77,-3.176 l -0.867,-0.774 -7.887,0 c 0.77,0.774 2.402,0 3.945,-0.863 l 0,-3.945 -0.773,-0.774 c -0.77,0 -2.402,-1.633 -3.172,-1.633 l -21.074,-0.773 c -0.289,0.965 -1.059,1.832 -2.5,2.891 -8.852,0.578 -22.035,-9.914 -25.981,4.523 0.579,2.309 -2.113,4.137 -3.75,4.524 -5.484,-3.176 -3.175,-6.356 -1.73,-10.879 -4.141,-1.922 -7.891,3.179 -11.645,5.586 -7.89,3.269 -2.308,19.824 -13.566,14.339 l 0,0 0.961,-7.316 0,0 c -4.711,-2.117 -3.559,5.391 -6.254,7.316 -1.828,9.239 -0.191,18.094 -1.828,25.985 -1.539,1.637 -4.328,0.769 -6.254,0.965 l 0,0 -1.828,-1.735 1.828,-21.656 0,0 c -6.348,14.148 -10.102,30.703 -10.871,45.91 -1.539,2.117 -3.559,3.082 -6.254,2.695 -3.176,-6.253 1.926,-13.761 0.77,-21.656 0.578,-7.023 2.597,-13.57 5.484,-19.633 -4.137,5.485 -10.582,7.797 -14.336,13.379 -0.191,13.379 -4.523,28.102 0.769,40.52 l 0,0 -5.292,3.562 0,0 c -5.9653,-4.91 -3.559,-13.187 -5.4849,-19.734 -7.8867,22.234 -7.2148,48.223 -0.2851,71.418 1.73,0.191 3.461,0.383 5.195,0.383 0,2.312 6.348,3.945 7.887,5.488 0.867,0 15.973,0.863 15.105,4.039"
         style="fill:#d6cd27;fill-opacity:1;fill-rule:nonzero;stroke:none"
         id="path27195" /><path
         d="m 244.566,434.547 c 0.387,0 2.024,-3.176 2.024,-6.352 5.578,-3.949 5.578,-30.992 11.93,-30.992 l 0,-1.539 3.175,-3.176 0,-1.636 c 1.539,0 5.578,-12.707 6.348,-15.114 3.945,-11.066 15.105,-24.543 23.766,-31.758 l 0,-0.773 c 0.867,0 2.406,-0.769 2.406,-2.406 3.176,0 6.351,-3.176 7.984,-4.715 l 0,-0.867 c 0,0 3.176,-1.539 3.946,-1.539 0,0 1.636,-1.637 1.636,-2.407 7.121,0 16.645,-5.582 24.633,-5.582 0,-1.539 1.539,-1.539 1.539,-1.539 l 0,-0.769 c 0.77,-0.867 3.945,-1.637 4.809,-1.637 2.308,-2.406 9.527,-13.476 12.703,-13.476 l 0.769,-0.864 c 0,-0.769 0.77,-1.543 0.77,-2.312 0.769,0 2.406,-1.633 3.176,-1.633 l 0,-1.543 10.293,-9.527 c 4.715,0 22.226,-5.582 25.402,-8.758 3.176,0 22.996,-7.988 24.629,-9.528 1.539,0 6.351,-0.867 6.351,-3.179 3.946,0 30.118,-9.528 30.118,-10.395 1.632,0 12.793,-0.769 12.793,-2.308 1.543,0 5.488,-1.637 7.121,-0.868 l 0.769,0.868 c 0.77,1.539 0.77,5.488 0.77,7.894 -2.309,2.406 -22.223,4.809 -24.629,4.809 l -9.527,6.355 c 0,2.407 -5.485,3.176 -6.348,3.946 l 0,0.769 c -1.543,0.867 -15.879,4.043 -15.879,6.352 l -2.402,0 c -0.77,1.636 -6.352,4.043 -7.891,4.043 l -0.77,0.769 c 0,0.77 -2.406,3.176 -3.175,3.176 l 0,1.539 c -6.352,6.355 -19.149,8.762 -22.321,15.98 -0.773,0 -4.714,3.176 -4.714,3.946 -2.407,0 -8.758,7.89 -9.528,8.758 l -0.769,0 -1.637,3.175 c -6.254,0 -15.008,6.352 -19.723,10.297 l 0,0.77 c -0.867,0.773 -1.636,0.773 -2.406,2.406 -1.637,0 -10.293,4.813 -10.293,6.356 -2.406,0 -4.812,-0.774 -7.219,-0.774 l -0.769,0.774 c 0,3.945 -8.754,2.406 -8.754,6.351 -0.77,0 -1.539,0.77 -2.406,0.77 0,2.406 -5.485,3.175 -6.352,3.175 0,0.868 -5.484,7.989 -5.484,7.989 l 0,1.539 -1.633,2.406 -0.77,0 c 0,0.77 -0.773,2.406 -1.636,2.406 l 0,1.539 -1.539,0.867 -0.77,0.77 c 0,0.77 -0.867,2.406 -1.637,2.406 l 0,1.539 -0.769,0 0,1.637 c -0.867,0 -9.528,6.356 -11.16,7.895 l 0,2.406 c -3.946,1.637 -4.715,7.988 -4.715,11.933 l -1.637,0 c 0,-0.769 -1.539,-2.406 -1.539,-3.175 0,1.539 -0.867,4.714 -0.867,6.351 l -2.309,2.406 0,-4.043 -1.636,0 c 0,1.637 -2.403,3.176 -3.172,4.043 0,0.77 -1.543,5.582 -2.407,5.582 0,2.309 0,4.715 -0.769,6.352 l -3.176,0 -0.769,0.77 c 0,0.769 -5.582,5.582 -5.582,5.582 0,1.543 -2.407,4.718 -3.176,6.355 l -2.403,5.484 -0.769,0 0,-4.714 -0.774,0 0,-2.407 -0.863,0 -0.387,0.77"
         style="fill:#d6cd27;fill-opacity:1;fill-rule:nonzero;stroke:none"
         id="path27197" /><path
         d="m 459.32,456.875 c -3.175,-1.637 -31.75,25.313 -31.75,22.906 1.637,0 4.039,-3.847 4.809,-4.715 l 0.773,-14.246 c 1.633,-0.769 4.809,-3.945 6.348,-3.945 0,-3.176 -0.77,-5.582 -3.176,-7.988 0,-1.539 -1.539,-4.813 -1.539,-5.582 7.121,0 13.473,-9.528 13.473,-16.653 0,0 -3.176,-3.945 -3.176,-4.808 -0.769,0 -2.406,-1.543 -3.176,-1.543 l 0,-3.946 1.539,-1.636 c 0,-0.77 0,-3.946 0.868,-4.813 l 0.769,0 c 2.406,-3.945 0.77,-13.472 0.77,-18.191 l -1.539,-0.863 c 0,-0.77 11.832,-18.289 3.175,-18.289 l 0,-1.54 c -3.175,0 -9.527,3.176 -14.336,3.176 0,1.539 -0.773,0 -0.773,1.539 -0.77,0 -2.402,0.867 -3.172,0.867 0.77,-0.867 2.402,-3.175 3.945,-3.175 0,-0.867 0.77,-2.407 0.77,-3.176 l 4.039,-4.813 0.769,0 c 0.77,-0.769 2.407,-3.945 3.946,-3.945 0,-1.637 3.945,-4.812 4.812,-4.812 0,-2.309 2.309,-3.176 3.172,-3.946 l 0,-11.164 c -0.863,0 -4.039,-3.179 -4.039,-3.179 l 0,-0.77 0.867,-0.77 1.539,0 0.77,-0.769 c 0,-0.867 0,-3.176 1.633,-3.176 0,-2.406 0.773,-11.164 -2.403,-11.164 1.633,-1.539 10.293,-6.351 12.7,-6.351 0,-3.176 -0.77,-10.301 -4.715,-10.301 0.769,0 3.945,-2.406 4.715,-2.406 0,-1.633 0.867,-2.407 0.867,-2.407 l 0,-0.769 c 0,0 -1.637,-1.637 -1.637,-2.407 -10.297,0 -15.875,0 -2.406,-3.175 l 0,-3.176 c -1.539,0 -5.578,-3.176 -7.121,-4.715 l 0,-2.406 c -1.633,0 0,-0.77 -1.633,-0.77 l 0,-2.406 c 0.863,0 5.578,-3.176 5.578,-4.043 11.164,0 23.863,-2.309 35.793,-2.309 l 0,1.54 c 4.715,0 5.582,10.394 5.582,13.57 -1.637,3.176 -6.449,5.484 -7.988,7.89 -5.578,7.989 -2.403,23.872 -4.809,33.399 -1.539,0.769 -3.945,2.406 -5.484,2.406 0,7.121 -1.637,15.879 -1.637,23.004 l -1.539,1.637 c -0.867,0 -1.637,0.769 -2.406,1.539 0,20.691 0,41.289 0,60.441 l 3.945,3.176 c -0.769,0 -2.406,0.77 -3.176,0.77 0,0 -0.769,0.769 -1.539,0.769 -5.578,11.168 -14.336,17.52 -14.336,31.762 -0.769,0.867 -1.636,1.637 -1.636,2.406 -3.942,1.637 -18.184,13.477 -20.59,13.477 22.613,-1.539 10.39,5.582 -4.809,9.527 l -0.769,0 29.343,-24.543"
         style="fill:#fcd12f;fill-opacity:1;fill-rule:nonzero;stroke:none"
         id="path27199" /><path
         d="m 431.609,484.594 c -0.863,0.769 -4.039,2.312 -4.039,3.945 -0.769,0 -7.121,1.543 -7.121,3.176 -0.769,0 -1.636,0 -1.636,0.773 -3.942,0 -7.887,3.176 -11.833,3.176 0,1.637 -0.867,0 -0.867,1.637 -1.539,0 -5.484,2.308 -5.484,2.308 -0.863,0 -1.637,0.868 -2.406,0.868 0,-1.637 0.769,-3.176 0.769,-4.813 0.774,0 2.406,-2.406 3.176,-3.176 l 0,-3.179 -3.176,-3.176 c -1.539,0 -3.172,-0.77 -3.941,-0.77 l 0,-2.406 1.539,-0.769 0.863,-0.77 0.77,-0.867 c 0,-1.539 0.769,-4.617 1.543,-6.254 0,-0.77 -0.774,-1.539 -0.774,-3.176 l -1.539,-0.769 0,-0.77 c -0.863,-0.867 -4.808,-3.18 -5.578,-3.18 0,-3.175 7.891,-14.339 9.523,-17.515 0,-0.77 -1.632,-2.407 -1.632,-3.176 l -0.774,-0.77 -1.539,0 -0.863,-0.867 c 0,-0.769 -0.77,-1.539 -1.539,-1.539 l 0,-2.406 c 0.769,-0.77 3.172,-3.176 4.715,-3.176 0,-4.715 1.632,-8.758 1.632,-13.476 -0.769,0 -3.175,-2.407 -3.945,-2.407 l 0,-0.769 -2.402,-1.637 c 0,-0.769 0.769,-3.176 0.769,-3.176 l 0.77,0 c 0,-0.769 1.633,-3.175 2.402,-3.175 l 0,-11.067 -3.941,-4.043 0,-2.308 1.539,-1.637 0,-3.176 c 2.402,-2.406 0.863,-9.531 0,-11.937 l 0,-0.77 c 0.863,-2.406 12.699,-4.812 16.738,-8.758 l 0,-7.89 c -0.863,0 -1.633,-0.868 -2.402,-1.637 l -1.637,0 0,-2.406 c 1.637,-1.539 6.352,-3.176 8.754,-3.946 0,-0.769 1.637,-2.406 2.406,-2.406 l 0.77,-0.769 c 0,-0.774 1.636,-3.176 2.406,-3.176 0,-1.543 0.77,-2.407 0.77,-3.18 0,-0.769 -0.77,-1.633 -0.77,-2.406 -0.77,0 -2.406,-1.539 -3.176,-1.539 0,-2.407 4.715,-3.176 4.715,-5.582 0.867,0 1.637,-0.77 2.406,-1.637 0,-2.309 1.637,-5.484 1.637,-7.891 0,-0.769 -0.769,-1.636 -1.637,-1.636 0,-1.539 -0.769,-1.539 -0.769,-2.309 7.984,0 11.929,-4.812 11.929,-11.937 -0.769,0 -1.636,-0.864 -2.406,-1.633 l -1.539,0 0,-1.543 0.77,0 0.769,-4.039 c 1.637,0 3.946,-3.18 4.813,-3.18 l 0,-1.539 0.769,0 c 0.77,-1.637 -0.769,-5.582 -0.769,-7.121 -0.867,0 -2.407,-3.176 -3.176,-3.176 0.769,-0.867 1.539,-1.637 2.309,-1.637 0,-1.539 1.636,-1.539 1.636,-1.539 l 0,-0.867 c 0,0 3.176,-1.539 3.946,-1.539 l 0,-1.637 2.406,-2.406 0,-1.539 0.769,-0.77 c 2.403,0 5.578,-1.636 7.985,-1.636 0,-2.406 10.297,0.769 10.297,-2.406 0.769,0 11.16,-0.77 11.16,-1.54 l 11.062,0 c 0,0.77 2.407,4.715 3.176,4.715 0,0.867 0,1.637 0.77,1.637 0,15.879 -0.77,22.23 -5.485,34.938 0,1.636 -0.863,4.812 -0.863,6.351 -3.945,4.043 -10.297,19.055 -11.836,24.637 -3.176,9.531 5.484,27.816 0.77,35.804 l -0.77,0 c -0.867,1.54 -1.637,7.895 -1.637,9.528 -0.769,0 -2.402,5.582 -2.402,6.355 -2.313,7.121 1.633,19.055 0,27.043 -0.774,2.313 -3.176,6.352 -3.176,8.664 0,0 -3.176,4.043 -3.176,5.582 -4.714,2.407 -7.121,17.516 -7.121,22.231 -1.636,0 -4.808,4.043 -8.754,4.043 l -0.769,0.769 c 0,1.543 -7.121,15.114 -7.988,15.114 0,0.769 -0.77,4.617 -0.77,5.484 l -0.77,0 0,2.309 -0.769,0.867 c -0.867,0 -3.176,-2.406 -4.809,-2.406 l -1.543,2.406"
         style="fill:#d6cd27;fill-opacity:1;fill-rule:nonzero;stroke:none"
         id="path27201" /><path
         d="m 429.977,484.594 c 0,-0.867 0.769,-3.176 0.769,-4.043 l 1.633,-0.77 c 0,-0.769 0.773,-3.078 1.543,-3.078 0,-3.945 -2.313,-9.531 -2.313,-11.933 l 3.946,0 1.539,-1.543 c 0,-4.039 -0.77,-7.989 -0.77,-11.934 -0.769,-0.77 -1.539,-1.637 -1.539,-2.406 l 0.77,-0.77 c 1.539,0 3.945,-3.176 4.715,-3.176 0,-5.582 1.636,-11.933 1.636,-17.515 -0.769,0 -0.769,-0.774 -0.769,-1.543 l -1.637,-0.863 0,-1.543 c 12.703,0 7.988,-8.758 7.988,-16.747 -0.867,0 -4.043,-4.714 -4.812,-4.714 l 0,-3.176 c 0.769,-0.77 3.176,-4.813 4.812,-4.813 0,-0.769 0.77,-7.121 0,-7.894 l -0.867,0 0,-1.633 -0.769,-1.543 -3.176,-3.176 0,-0.769 c 0,-0.867 3.176,-1.637 3.176,-3.274 0.769,0 2.406,-1.539 3.175,-1.539 0,-0.769 0.77,-1.636 0.77,-2.406 l 1.633,-0.77 0,-3.175 c -0.77,0 -2.403,-0.77 -2.403,-1.637 -2.406,0 -4.714,-0.77 -7.121,-0.77 0,-0.769 0.77,-1.539 0.77,-2.406 1.637,0 0,-0.769 1.637,-0.769 0,-0.77 1.539,-3.176 1.539,-3.946 0.769,-0.769 2.406,-1.636 3.175,-2.406 0,-5.582 5.578,-11.07 5.578,-18.289 3.176,-1.539 7.989,-3.945 10.297,-6.352 l 0,-6.351 -1.539,-0.77 c 0,-0.769 -1.636,-2.406 -1.636,-2.406 4.812,-1.539 14.336,-2.406 17.511,-4.715 0,-1.636 -0.769,-4.043 -0.769,-4.812 -0.867,0 -1.637,-0.77 -2.406,-0.77 l -0.77,-1.636 c -0.867,0 -3.176,-0.77 -3.176,-1.543 -1.637,0 -4.808,1.543 -6.351,1.543 0,-0.77 5.488,-5.583 6.351,-5.583 l 0,-3.949 c -4.039,-1.539 -11.16,-1.539 -15.105,-1.539 0,-0.867 0.769,-1.637 0.769,-2.406 l 1.539,0 0,-2.406 -0.769,-0.77 c -0.77,0 -5.578,-1.637 -6.348,-1.637 0,-3.175 1.633,-9.527 0,-12.703 l -0.773,0 0,-1.539 0.773,-0.867 c 2.402,-1.539 9.524,0 11.16,-3.176 l 22.227,-0.769 c 6.348,3.176 11.93,11.164 11.93,18.285 -0.77,0 -1.637,0.769 -2.407,0.769 l -0.769,0.868 -0.867,0.769 c 0,0.77 -0.77,1.539 -0.77,2.406 -1.539,0 -2.406,2.309 -2.406,2.309 l -0.77,18.289 c -0.769,0.867 -2.402,1.637 -3.941,1.637 0,3.945 -9.527,3.176 -12.703,4.715 l 0,7.218 -0.77,0 0.77,6.352 0.769,0 c 3.176,5.488 3.176,15.883 3.176,23.004 l -1.539,1.637 -2.406,54.761 c -3.176,3.176 -3.176,13.571 -3.176,17.52 -7.117,3.176 -7.117,16.648 -11.16,20.691 0,3.176 -4.715,7.891 -4.715,10.297 l -2.406,0 c -0.77,0.774 -3.172,3.949 -3.942,3.949 0,2.407 -1.636,6.352 -1.636,8.758 l -2.407,0 -0.769,0.77 -0.77,0.769 0,4.715 c -1.636,0 -3.945,-2.406 -5.582,-2.406 l 0,2.406 -0.769,0.77 -0.77,0.867 -1.633,0 c 0,-1.637 -0.773,0 -3.175,0"
         style="fill:#fcd12f;fill-opacity:1;fill-rule:nonzero;stroke:none"
         id="path27203" /><path
         d="m 234.656,468.715 c 0.77,0 3.946,1.637 3.946,2.406 l 2.406,0 0,0.77 c 5.582,3.175 18.281,-11.071 20.687,-13.477 l 0.77,-0.769 c 0.769,0 4.808,2.406 4.808,3.175 l 0.77,-1.632 c 0.77,0 4.715,-2.313 4.715,-3.95 0.867,0 4.812,-3.945 4.812,-5.582 0.77,0 2.407,1.637 3.176,1.637 2.402,0 6.348,-3.176 8.754,-3.176 0,-0.769 0.77,-2.406 1.539,-2.406 0,-1.637 1.637,-3.176 1.637,-4.813 0.769,-0.769 2.406,-3.945 3.176,-4.714 2.402,0 4.714,-1.637 7.117,-3.176 0,-0.77 1.636,-3.176 2.406,-3.949 l 0,-2.407 c 2.406,-1.632 3.176,-5.582 3.176,-8.757 3.176,-1.54 4.715,-3.946 7.121,-6.352 1.637,0 3.176,1.637 4.808,1.637 0,-0.867 3.176,-4.813 4.715,-4.813 0,-1.637 2.407,-3.945 4.043,-4.812 0,-1.539 2.309,-2.309 2.309,-3.176 1.637,0 2.406,0.867 3.176,1.637 3.175,0 11.929,-7.989 11.929,-11.934 0.77,0 3.176,-1.543 3.176,-1.543 l 1.637,0 c 3.945,-4.039 3.172,-10.394 10.969,-10.394 3.171,-3.176 3.171,-7.891 5.578,-11.067 l 0.769,0 c 0,0 1.637,-2.406 1.637,-3.176 l 1.539,0 c 0,-0.867 4.813,-6.351 5.582,-6.351 l 2.402,-4.043 0.77,0 c 0.773,-1.539 3.176,-3.945 4.812,-5.488 1.54,0 3.176,-0.864 4.715,-0.864 l 0.77,-0.769 c 0,-4.813 4.812,-7.125 4.812,-11.168 4.809,0 10.293,-4.715 15.875,-4.715 l 0,-5.582 1.633,-2.406 0.77,0 c 0.773,-0.77 1.543,-3.946 2.406,-3.946 0,-2.406 1.539,-5.582 1.539,-7.894 3.945,-4.039 14.336,-3.27 17.512,-6.446 l 0.769,-0.769 c 0,-1.543 0,-6.356 0.77,-7.895 l 0.867,0 0.769,-4.043 c 1.54,0 0,-0.769 1.54,-0.769 0,-0.77 1.636,-3.945 1.636,-3.945 l 0,-0.77 -0.769,-0.867 -1.637,0 c 0,-3.176 -4.715,-1.539 -6.348,-1.539 -3.945,3.945 -11.164,3.176 -15.109,7.121 l -1.539,0 c -3.176,3.176 -10.391,3.176 -12.699,5.582 l -0.867,0.769 c 0,0.77 -4.715,5.583 -5.485,5.583 -2.402,5.582 -17.512,13.476 -23.09,15.882 0,1.637 -3.175,4.813 -4.715,4.813 0,1.539 -3.175,3.176 -4.043,3.945 l 0,1.539 c -3.171,3.176 -6.253,7.988 -10.195,9.528 l 0,0.867 c -0.773,0 -3.176,0.769 -3.945,0.769 l -0.867,1.543 -2.309,0 0,0.864 -1.637,0 c 0,3.175 -26.172,5.582 -27.804,9.531 -0.77,0 -2.407,0.769 -2.407,1.539 -6.351,0 -13.472,7.219 -18.187,9.527 l 0,2.406 c -0.863,0.77 -2.402,2.407 -3.172,2.407 0,0.769 -3.273,5.582 -4.812,5.582 l -0.77,0.769 c 0,1.539 -7.984,11.934 -8.754,11.934 -0.769,2.406 -5.582,5.582 -5.582,9.531 -0.769,0.77 -3.176,7.121 -5.582,7.121 -0.769,1.637 -3.941,4.813 -5.484,4.813 0,0.769 -2.403,3.945 -3.172,3.945 0,7.988 -11.164,17.516 -11.164,23.871 -1.633,0 0,0.77 -1.633,0.77 0,0.769 -2.313,3.945 -2.313,3.945 l -0.863,0 c -3.176,3.945 -3.945,14.34 -7.121,19.059 l -0.769,0 0,2.402 c -1.637,0 -1.637,5.582 -1.637,7.125 0.867,0 1.637,0.867 -0.77,0"
         style="fill:#fff59d;fill-opacity:1;fill-rule:nonzero;stroke:none"
         id="path27205" /><path
         d="m 192.516,629.156 4.808,0 c 0.77,0.77 1.637,1.637 2.406,1.637 0,0.77 0.77,1.539 0.77,2.309 l 0.77,-1.539 2.406,-0.77 0,-0.867 c 0.769,-0.77 4.812,-0.77 5.582,0 l 0,0.867 c 1.539,0.77 3.945,1.539 4.715,3.945 4.808,0 11.16,-2.406 15.968,-2.406 0,1.637 3.946,5.582 3.946,6.352 0.769,-0.77 4.715,-3.176 4.715,-3.946 0.867,1.539 4.812,4.715 4.812,6.352 0.77,-0.77 2.402,-2.406 2.402,-3.176 3.946,0 11.067,-4.812 16.649,-4.812 0,2.406 2.406,5.582 2.406,7.988 0.77,0 1.539,2.406 2.402,2.406 0,-1.637 0.77,-4.812 0.77,-6.351 0.77,-0.383 2.023,-0.961 3.367,-1.442 0,-0.773 0,-1.543 0.098,-2.406 2.984,-1.637 3.078,-5.199 3.847,-8.567 -0.382,-0.484 -0.769,-0.867 -0.96,-1.156 l 0,-5.484 -1.637,1.539 -1.539,-0.77 c 0,-0.769 -0.77,-1.636 -0.77,-2.406 -1.636,0 0,-0.769 -1.636,-0.769 l 0,-1.637 c -0.77,0 -1.54,0.867 -1.54,1.637 l -1.632,0 -3.946,-4.813 c 0,0.77 -0.769,1.637 -0.769,2.406 -1.637,0 -4.043,-0.769 -5.582,-0.769 -0.867,-1.637 -3.176,-4.043 -4.039,-5.586 0,0.773 -0.774,1.543 -0.774,2.406 l -1.539,0 c -4.039,-4.039 -7.984,-7.988 -9.523,-13.57 l 0,2.406 c 0,-3.176 -3.176,-9.527 -4.043,-11.066 0,0.769 -1.539,2.308 -1.539,3.175 -3.946,0 -11.16,-4.043 -11.93,-7.988 l 0,3.176 c -1.637,-3.176 -4.812,-27.047 -4.812,-23.004 -6.348,-0.867 -13.469,-3.176 -19.051,-4.812 0,2.406 -1.539,7.125 -2.309,8.757 -0.863,-2.406 -2.406,-4.812 -2.406,-7.121 -2.402,-2.406 -9.524,-16.746 -8.754,-19.152 0,7.988 -19.82,-9.527 -19.82,-10.297 l 0,3.176 c -1.637,-4.719 -3.176,-11.07 -4.039,-15.883 l -1.543,1.637 c -4.039,-1.637 -4.809,-7.219 -7.985,-10.395 -2.406,0.77 -6.351,4.043 -8.754,4.813 l -10.296,-9.528 c -0.77,-2.406 -3.176,-4.812 -3.176,-7.988 3.176,-2.406 -0.77,-5.582 -3.176,-7.125 0,6.356 -26.168,-10.297 -27.8047,-11.066 0,-0.77 -1.5391,-3.176 0,-3.176 -0.7696,-1.637 -1.8282,-3.274 -3.0782,-4.621 1.25,7.316 3.1758,14.535 5.6759,21.465 5.871,30.125 28,55.918 50.418,78.152 11.832,10.488 24.148,21.27 36.754,28.008 2.789,10.105 5.387,20.304 4.715,31.855"
         style="fill:#d9cf25;fill-opacity:1;fill-rule:nonzero;stroke:none"
         id="path27207" /><path
         d="m 228.309,757.934 c 0.769,1.539 3.945,8.664 2.402,11.07 l -0.77,0 -0.863,3.176 -0.769,0 c 0,0 0,1.636 -1.539,1.636 l 1.539,1.539 c 0,2.407 3.945,3.176 3.945,5.583 0.863,0.769 4.809,3.945 5.578,3.945 0,0.867 3.176,3.176 3.176,4.043 l 0.769,0 c 0.868,0.769 2.407,2.308 3.176,3.945 1.637,0 7.985,6.352 7.985,7.121 0.769,0 2.406,0.774 3.175,0.774 l 0,-1.543 1.539,-1.637 0,-1.539 c 2.407,-0.77 5.582,0 7.989,0 l 0,-6.352 c 2.402,0 7.984,-1.636 10.293,-1.636 0,-0.77 0.867,-2.309 0.867,-3.946 4.715,0 11.832,-1.539 16.644,-1.539 0,-0.867 0.77,-2.406 0.77,-3.273 l -2.406,-2.309 0.867,-0.867 c 1.539,0 4.715,-1.539 5.578,-2.309 l 0,-1.636 -1.633,-1.539 c 3.176,0 11.93,-2.407 14.336,-4.043 l 0,-1.543 c -0.867,0 -1.637,-0.77 -2.406,-0.77 0,-0.863 -1.637,-1.637 -1.637,-2.406 l -3.172,0 c 0,-3.176 -0.773,-7.121 -0.773,-9.527 -1.539,0 -8.754,0 -8.754,1.539 -1.539,0 -3.945,-1.539 -6.352,-1.539 0,1.539 -2.402,3.175 -2.402,3.945 -1.539,0 -5.484,-0.77 -5.484,1.637 0.769,0 1.539,1.539 1.539,2.312 l -0.77,0.863 c -4.812,0 -11.933,2.313 -16.648,2.313 l 1.543,0 c 0,0.863 0.769,1.633 1.632,1.633 l 0,2.406 -0.863,0.773 c -0.769,0 -3.945,-0.773 -4.715,-0.773 l 0,-0.863 -1.636,0 c 0,0.863 1.636,4.812 1.636,5.582 l -0.769,0.769 c -4.043,1.637 -12.797,0 -15.11,-2.308 l 0,1.539 -1.632,0 c 0,-0.77 -0.77,-1.539 -1.539,-1.539 0,-0.868 -0.868,-2.407 -1.637,-2.407 l 0,-1.636 c -0.77,0 -3.176,-3.95 -3.945,-4.719 l -2.407,0 c 0,-1.633 -0.769,0 -0.769,-1.633 l -2.403,-0.773 0,-0.77 c -0.773,0 -2.406,-0.769 -3.175,-0.769"
         style="fill:#d9cf25;fill-opacity:1;fill-rule:nonzero;stroke:none"
         id="path27209" /><path
         d="m 307.781,857.164 c -1.156,-0.961 -2.406,-1.734 -2.406,-3.078 -1.633,0 0,-0.867 -1.633,-0.867 l -0.773,-3.176 -0.77,0 0,-3.945 -0.769,0 0,-2.407 c -1.633,0 -1.633,-3.179 -2.403,-3.179 0,-1.539 -0.773,-3.176 -0.773,-4.715 l -0.863,-0.867 c -1.539,0 -4.715,-1.539 -6.352,-1.539 0,-1.637 -3.945,-1.637 -4.715,-1.637 0,-1.539 -9.523,0 -9.523,0 l -1.637,0.867 0,0.77 -2.406,0.769 c -0.77,-0.769 -1.539,-1.539 -1.539,-2.406 -0.77,0 -2.406,-1.539 -3.176,-1.539 l -0.77,0.769 c 0,1.637 -4.808,4.813 -5.578,4.813 l 0,1.539 c -1.636,0 -2.406,-0.77 -3.175,-0.77 -2.407,0 -6.352,-0.769 -8.758,-0.769 l -0.77,1.539 -7.984,0 c 0,-0.77 -2.406,-2.406 -3.176,-2.406 l 0,-0.77 c -1.539,-0.769 -6.348,-2.406 -7.891,-2.406 -0.863,0.867 -2.402,3.176 -2.402,4.043 l -0.769,0.769 c -0.868,0 -3.274,0 -4.043,-0.769 l 0,-0.867 c -0.77,0 -2.407,-0.77 -2.407,-2.309 -3.945,0 -7.117,-8.758 -9.523,-11.164 l -1.539,0 -0.77,0.77 0,1.636 c -2.406,0 -15.109,3.946 -15.109,5.582 0,-0.867 -1.633,-3.175 -1.633,-3.175 l -0.769,0 -3.176,-3.176 0,-0.867 c -0.77,-0.77 -4.813,-3.176 -6.352,-3.176 l -1.633,-1.539 c 0,-2.407 -0.769,-4.043 -2.312,-4.813 0,-2.406 -0.863,-3.945 -3.172,-3.945 l -0.867,-1.637 -3.176,0 c 0,4.043 -0.769,7.988 -0.769,11.934 -0.77,0 -7.122,-5.582 -7.891,-6.352 l -0.863,0 c -0.77,-1.539 -2.407,-6.351 -2.407,-7.894 -0.769,-0.864 -1.539,-2.407 -1.539,-3.176 l -0.769,-0.863 c -1.637,0 -3.176,2.406 -4.813,2.406 l -0.769,1.633 -1.637,0.773 -2.309,0 -0.867,-0.773 c 0,-2.407 0.867,-13.571 -2.308,-13.571 0,-3.175 -1.633,-7.121 -1.633,-9.527 -0.774,-0.769 -3.945,-1.539 -3.945,-3.176 -3.946,0 -6.352,-3.945 -7.989,-6.351 l -0.769,0 -0.77,-1.539 -1.637,0 c 0,1.539 0,3.175 0.868,3.945 -0.868,0 -2.407,-0.77 -2.407,-1.637 -0.863,0 -1.632,-1.539 -1.632,-2.308 -1.543,0 -4.715,-2.407 -4.715,-4.043 -1.637,-0.77 -3.176,-3.176 -4.813,-4.719 l 0,-1.633 0.77,0 c 0.867,-0.773 -0.77,-3.949 -0.77,-4.719 -1.539,0 -2.406,-0.769 -3.176,-0.769 0.77,0 -3.171,1.539 -3.945,1.539 0,0.769 -0.769,1.637 -0.769,2.406 -0.864,-0.769 -3.172,-2.406 -4.039,-2.406 0,-0.77 -0.77,-1.539 -1.539,-2.406 0,-1.539 0.769,-3.946 0.769,-6.352 -1.539,-0.578 -3.2734,-1.059 -5.1953,-1.348 -1.4453,27.817 1.9219,55.149 11.7383,81.524 2.309,13.762 8.66,28.293 19.82,35.992 9.235,-3.367 7.313,11.07 15.2,12.609 0.578,-1.73 2.312,-4.523 4.523,-6.253 6.93,0.578 8.082,9.046 13.566,10.777 -1.347,-3.176 2.215,-4.332 3.563,-6.254 7.117,-0.578 11.449,16.555 17.125,6.254 l 0,0 2.789,-1.731 10.777,9.817 0,0 c 0.578,-2.598 -1.925,-7.699 2.598,-8.086 7.41,-0.578 10.777,17.324 18.859,6.351 5.485,-1.25 4.907,6.45 10.102,6.258 l 0,0 c 0.578,-1.926 -2.02,-7.508 2.5,-9.047 5.293,0.77 11.644,9.239 16.359,0.961 3.75,-0.578 10.199,2.024 8.852,-4.523 1.347,-3.559 7.312,-0.383 10.004,-2.695 3.945,-2.79 8.66,-1.059 12.605,0.964 4.328,-3.175 3.946,-10.875 10.871,-10.875 0.387,-3.949 1.926,-7.027 6.254,-8.086 5.969,2.118 10.106,0.29 13.664,-2.984"
         style="fill:#fbc707;fill-opacity:1;fill-rule:nonzero;stroke:none"
         id="path27211" /><path
         d="m 267.949,856.684 c -1.347,-4.621 -3.945,-8.954 -7.312,-12.61 l 0,0 -2.504,0.77 0,0 c 0.387,4.91 2.117,9.433 5.293,13.57 1.828,0.195 3.367,-0.191 4.523,-1.73 l 0,0"
         style="fill:#e1b61e;fill-opacity:1;fill-rule:nonzero;stroke:none"
         id="path27213" /><path
         d="m 231,853.891 c -0.672,-5.965 -0.48,-9.43 -5.387,-12.606 -3.754,1.922 -3.558,5.871 -0.961,9.047 0.383,1.731 3.176,4.715 6.348,3.559 l 0,0"
         style="fill:#e1b61e;fill-opacity:1;fill-rule:nonzero;stroke:none"
         id="path27215" /><path
         d="m 304.027,848.598 c -1.058,-6.93 -5.964,-14.051 -11.832,-16.364 -2.984,1.348 -2.023,5.489 -0.769,7.317 7.406,0.769 3.269,12.992 12.601,9.047 l 0,0"
         style="fill:#e1b61e;fill-opacity:1;fill-rule:nonzero;stroke:none"
         id="path27217" /><path
         d="m 174.234,843.016 c -0.191,-13.379 -8.66,-25.793 -8.851,-40.52 -2.504,-3.176 -4.137,-3.367 -7.313,-1.828 -3.273,5.004 2.598,8.469 3.559,12.609 3.562,10.106 3.754,22.137 10.875,29.739 l 1.73,0 0,0"
         style="fill:#e1b61e;fill-opacity:1;fill-rule:nonzero;stroke:none"
         id="path27219" /><path
         d="m 255.344,836.762 0,-3.563 c -9.043,4.332 -13.567,-7.89 -21.649,-3.562 0,5.968 7.313,6.547 10.871,9.914 4.715,1.734 6.641,-3.176 10.778,-2.789 l 0,0"
         style="fill:#e1b61e;fill-opacity:1;fill-rule:nonzero;stroke:none"
         id="path27221" /><path
         d="m 280.551,833.199 c 0.195,-4.332 -6.446,-2.984 -9.813,-4.523 -1.636,1.152 -2.211,2.789 -2.019,4.523 3.558,1.348 9.91,5.293 11.832,0 l 0,0"
         style="fill:#e1b61e;fill-opacity:1;fill-rule:nonzero;stroke:none"
         id="path27223" /><path
         d="m 225.613,830.406 c -6.254,-0.578 -9.621,-13.953 -17.125,-9.816 0.961,6.062 8.852,10.875 14.43,13.379 l 0,0 2.695,-3.563 0,0"
         style="fill:#e1b61e;fill-opacity:1;fill-rule:nonzero;stroke:none"
         id="path27225" /><path
         d="m 195.883,819.629 c -7.41,-2.602 -12.41,-10.875 -19.629,-13.379 -2.598,1.73 0.578,3.563 0.769,5.293 6.641,3.562 9.43,11.262 18.09,10.781 l 0,0 0.77,-2.695 0,0"
         style="fill:#e1b61e;fill-opacity:1;fill-rule:nonzero;stroke:none"
         id="path27227" /><path
         d="m 149.027,801.727 c -5.101,-6.547 0.383,-10.684 -2.504,-18.192 -5.773,-5.871 -6.156,-20.887 -17.125,-17.902 -1.058,1.156 -2.597,2.023 -1.828,3.562 9.524,6.93 15.586,18.285 15.2,30.703 0.773,2.211 6.64,7.891 6.257,1.829 l 0,0"
         style="fill:#e1b61e;fill-opacity:1;fill-rule:nonzero;stroke:none"
         id="path27229" /><path
         d="m 246.301,787.289 c 3.367,-3.754 7.312,5.582 11.832,6.352 3.754,0 8.277,3.945 11.644,0 l 0,-2.789 c -10.105,-1.157 -18.957,-9.047 -21.648,-18.868 l -5.391,0 0,0 c -1.347,4.911 2.215,7.895 3.563,11.551 -2.309,2.793 -3.754,-2.5 -6.254,-2.5 -4.332,-4.332 -2.215,-18.578 -12.606,-12.609 -0.191,1.73 -3.367,3.558 -0.769,5.293 9.812,10.203 18.859,18.285 27.711,28.777 6.058,-5.293 -5.102,-10.683 -8.082,-15.207 l 0,0"
         style="fill:#e1b61e;fill-opacity:1;fill-rule:nonzero;stroke:none"
         id="path27231" /><path
         d="m 280.551,787.289 c -1.922,-4.523 -8.656,-5.68 -12.602,-9.047 -3.945,-3.176 -8.082,-10.972 -13.566,-5.293 1.152,8.086 11.062,9.817 17.125,13.379 2.984,0.192 6.062,3.367 9.043,0.961 l 0,0"
         style="fill:#e1b61e;fill-opacity:1;fill-rule:nonzero;stroke:none"
         id="path27233" /><path
         d="m 123.816,773.719 c -1.925,-6.641 1.25,-18.672 -6.253,-23.387 l 0,0 -10.68,-5.391 0,0 c -2.887,1.25 -1.348,3.946 -1.926,6.352 2.984,4.91 14.531,2.309 13.566,11.645 2.024,7.027 -0.382,13.378 2.793,19.828 5.289,0.386 3.559,-6.258 2.5,-9.047 l 0,0"
         style="fill:#e1b61e;fill-opacity:1;fill-rule:nonzero;stroke:none"
         id="path27235" /><path
         d="m 299.508,777.281 c -9.528,-4.14 -21.649,-5.488 -30.789,-12.609 -2.309,0.383 -5.293,2.117 -3.465,4.523 9.621,6.254 20.398,10.008 32.426,10.875 l 0,0 1.828,-2.789 0,0"
         style="fill:#e1b61e;fill-opacity:1;fill-rule:nonzero;stroke:none"
         id="path27237" /><path
         d="m 222.918,763.902 c -2.02,-15.398 -4.715,-31.183 -18.953,-40.617 -6.254,-2.308 -12.988,-3.078 -19.629,-0.769 -6.926,10.007 -10.488,19.343 -5.578,31.472 5.965,7.891 11.64,19.539 22.707,22.52 9.621,0 15.875,-4.524 21.453,-12.606 l 0,0"
         style="fill:#231f20;fill-opacity:1;fill-rule:nonzero;stroke:none"
         id="path27239" /><path
         d="m 301.238,759.379 c -5.484,-3.176 -11.449,2.5 -16.164,-2.793 -1.73,0.578 -3.367,2.406 -2.695,4.523 5.101,2.024 16.937,8.278 18.859,-1.73 l 0,0"
         style="fill:#e1b61e;fill-opacity:1;fill-rule:nonzero;stroke:none"
         id="path27241" /><path
         d="m 211.277,762.074 c 1.926,-2.886 0.192,-6.449 -1.828,-9.051 -1.347,-1.921 -5.484,-3.75 -7.984,-1.73 -6.93,5.871 3.461,14.148 9.812,10.781 l 0,0"
         style="fill:#ffffff;fill-opacity:1;fill-rule:nonzero;stroke:none"
         id="path27243" /><path
         d="m 108.711,689.023 c 11.836,-9.242 25.594,-14.343 39.543,-18.867 -31.074,-22.039 -63.0196,-40.039 -98.0431,-53.992 -12.0273,-0.191 -21.6484,-6.258 -33.4804,-7.316 -3.2735,1.636 -1.5391,5.582 0,7.316 31.3633,19.922 60.4218,47.063 81.1093,79.211 5.5782,2.695 7.1172,-4.141 10.8712,-6.352 l 0,0"
         style="fill:#ca5b2c;fill-opacity:1;fill-rule:nonzero;stroke:none"
         id="path27245" /><path
         d="m 134.883,674.777 c -0.965,-0.289 -1.926,-0.675 -1.926,-1.156 l -8.754,0.867 0,0.77 c -5.484,3.176 -17.418,1.539 -23.765,1.539 0,-1.539 -0.77,0 -0.77,-1.539 -0.8672,0 -3.1758,-2.406 -3.1758,-3.176 -0.8672,0 -1.6367,-0.769 -2.4063,-0.769 0,-0.868 -1.6367,-2.407 -2.4062,-2.407 l -0.7695,-0.769 c 0,-0.867 -1.6329,-2.407 -1.6329,-3.176 -1.5429,0 -1.5429,-1.637 -1.5429,-1.637 l -0.8633,0 c 0,0 0,-1.539 -1.5391,-1.539 0,-0.867 -0.7695,-1.637 -0.7695,-2.406 -1.6367,0 -1.6367,-2.406 -3.1758,-2.406 l -0.8672,-2.407 -0.7695,0 c 0,-0.769 -0.7695,-2.312 -2.4062,-2.312 0,-0.863 -4.7149,-5.582 -5.4844,-5.582 0,-0.863 -0.8633,-1.637 -0.8633,-2.406 -0.7695,0 -3.1758,-3.176 -3.1758,-3.946 l -1.539,0 c -0.7696,-0.867 -2.4063,-4.043 -3.9454,-4.043 0,-0.769 -0.8671,-1.539 -0.8671,-2.308 l -1.5391,0 c 0,-0.867 -2.4063,-1.637 -2.4063,-2.406 -3.1757,0 -8.7539,-3.946 -10.2929,-6.352 l -1.6367,0 -2.4063,-1.637 0,-0.769 c -2.3086,-1.539 -6.3477,-2.407 -9.5234,-2.407 0,-1.539 -6.3516,-2.308 -7.8907,-2.308 l -1.6367,-1.637 c -1.539,0 -3.1758,-0.769 -3.9453,-0.769 -0.8633,-0.196 -2.3086,-0.289 -4.0391,-0.196 0.1915,0.196 0.3829,0.485 0.5782,0.676 31.3633,19.922 60.4218,47.063 81.1093,79.211 5.5782,2.695 7.1172,-4.141 10.8712,-6.352 l 0,0 c 7.984,-6.257 16.934,-10.589 26.172,-14.246"
         style="fill:#ed521d;fill-opacity:1;fill-rule:nonzero;stroke:none"
         id="path27247" /><path
         d="m 100.629,670.156 c 2.598,-7.312 -4.1368,-10.297 -8.2735,-13.379 -3.1758,-1.632 -4.9063,-1.25 -8.0821,0 -3.7539,6.645 4.5196,10.395 8.0821,15.305 2.5976,1.25 6.7343,1.445 8.2735,-1.926 l 0,0"
         style="fill:#231f20;fill-opacity:1;fill-rule:nonzero;stroke:none"
         id="path27249" /><path
         d="m 158.07,662.074 c -2.886,-7.894 -4.332,-14.824 -12.605,-19.73 -11.738,-5.871 -23.957,-10.781 -35.024,-18.867 -22.9918,-11.836 -48.3941,-23.098 -74.7574,-20.883 17.7031,2.597 32.4258,12.031 47.8203,19.922 6.9258,-1.828 10.1992,5.101 16.1641,6.257 18.855,10.008 37.137,22.231 55.707,33.301 l 2.695,0 0,0"
         style="fill:#a35e39;fill-opacity:1;fill-rule:nonzero;stroke:none"
         id="path27251" /><path
         d="m 258.902,625.98 c -1.343,-1.539 -3.558,-0.578 -5.289,-0.769 -4.14,3.176 0,7.121 0,10.875 1.539,0.769 2.117,3.562 4.52,2.504 1.539,-3.465 0.578,-9.434 0.769,-12.61 l 0,0"
         style="fill:#e1b61e;fill-opacity:1;fill-rule:nonzero;stroke:none"
         id="path27253" /><path
         d="m 243.508,637.82 c 2.023,-5.488 1.058,-12.609 -2.5,-16.363 -1.828,-0.191 -3.367,0.383 -4.524,2.02 2.696,4.718 -2.789,15.976 7.024,14.343 l 0,0"
         style="fill:#e1b61e;fill-opacity:1;fill-rule:nonzero;stroke:none"
         id="path27255" /><path
         d="m 229.172,630.602 c 1.539,-5.969 -2.309,-9.336 -2.5,-14.438 -1.25,-2.117 -3.559,-1.734 -5.582,-1.734 -5.098,3.562 2.023,6.64 0.965,10.781 0.863,2.984 -3.852,10.105 3.558,9.914 1.828,-2.023 2.789,-2.023 3.559,-4.523 l 0,0"
         style="fill:#e1b61e;fill-opacity:1;fill-rule:nonzero;stroke:none"
         id="path27257" /><path
         d="m 214.066,627.809 c -2.211,-3.754 -2.789,-7.317 -3.75,-12.61 0.192,-1.152 -0.195,-2.789 -1.828,-2.597 -3.082,-1.157 -3.562,1.828 -4.523,3.562 1.441,4.328 0.961,24.637 10.101,11.645 l 0,0"
         style="fill:#e1b61e;fill-opacity:1;fill-rule:nonzero;stroke:none"
         id="path27259" /><path
         d="m 455.859,461.496 c 13.371,-13.187 18.762,-33.109 19.914,-53.226 -0.191,-28.489 -0.578,-55.149 7.313,-79.114 9.43,-6.738 21.457,-6.16 30.5,-13.57 l 16.164,0 0,0 c 1.156,-1.25 1.156,-2.789 2.695,-3.563 -2.117,-7.503 -9.621,-1.152 -14.336,-1.828 -10.679,-5.101 -16.933,11.262 -26.941,4.332 5.293,-13.57 7.988,-26.371 7.988,-41.289 -4.523,-22.328 -26.558,-2.984 -40.508,-6.351 -20.878,7.699 -40.605,19.152 -59.46,31.566 -26.75,15.496 -43.008,46.488 -77.262,47.645 -31.754,17.707 -46.473,49.371 -67.543,73.82 -6.063,14.82 -16.36,27.812 -22.418,42.348 -0.578,2.597 0.574,5.871 3.558,5.484 6.832,-0.578 5.485,-9.047 7.985,-13.57 10.488,-23.965 28.961,-45.524 44.355,-66.504 14.723,-17.133 32.235,-35.324 54.75,-37.824 27.805,-11.262 46.567,-38.981 73.7,-52.266 16.933,-9.816 34.058,-21.461 53.109,-22.617 -9.043,7.125 -18.664,15.015 -27.902,19.926 -1.54,1.539 -0.575,4.328 -0.77,6.253 l 6.254,0 0,0 c 13.375,-10.585 27.23,-23.773 43.105,-26.179 1.829,4.14 -2.886,3.176 -4.519,4.523 -9.238,12.227 -23.766,15.207 -32.235,25.219 -0.191,1.828 0.192,3.367 1.731,4.523 11.644,-7.507 24.055,-13.957 34.254,-25.218 3.945,10.879 -9.813,13.57 -15.297,19.925 -4.621,-1.543 -3.563,3.754 -6.352,5.293 l 0,2.789 c 6.543,-0.769 10.68,-7.312 16.164,-10.105 3.176,2.793 -2.21,5.391 -0.769,7.316 -5.582,2.02 -9.043,8.856 -15.395,9.047 -2.308,1.059 -1.73,3.367 -1.73,5.391 3.078,-2.406 7.023,-2.406 10.773,-3.563 l 0,3.563 c -14.527,22.808 -38.386,34.457 -56.668,53.125 -0.964,2.41 1.153,3.754 2.5,5.297 l 0,0 3.754,-0.774 0,0 c 15.008,-16.359 30.789,-29.16 45.895,-41.578 4.519,8.278 -7.699,10.11 -10.777,16.363 -4.329,4.911 -12.989,10.297 -9.911,16.168 4.907,-3.367 11.641,-11.453 17.895,-13.57 3.176,13.188 -12.121,18.867 -19.82,27.914 -0.77,4.137 -8.465,5.582 -5.289,10.875 2.691,1.731 4.136,-1.347 5.289,-3.562 5.679,-5.293 12.222,-10.008 18.089,-12.61 7.504,16.172 -14.527,25.602 -22.418,36.864 -0.382,1.347 -3.558,2.886 -2.789,5.488 l 5.289,0 0,0 c 6.543,-7.125 14.051,-13.57 20.688,-18.094 2.984,4.328 0.387,7.699 0.961,12.606 -12.121,10.781 -22.992,20.695 -33.192,31.472 l 4.52,0 22.418,-15.109 0,0 c -0.961,10.586 -10.391,17.902 -18.855,24.156 -4.137,2.215 -8.95,7.699 -8.083,10.879 3.079,0.574 5.868,-2.41 8.083,-0.965 -3.754,9.242 -13.856,7.41 -18.958,15.207 l 0,0 3.563,4.524 0,0 c 12.41,-4.715 22.801,-14.243 26.941,-26.852 l 0,0"
         style="fill:#231f20;fill-opacity:1;fill-rule:nonzero;stroke:none"
         id="path27261" /><path
         d="m 259.867,365.922 c -0.769,-2.117 -2.117,-4.715 -4.523,-5.293 -3.946,0.961 -7.891,4.141 -9.813,8.086 -1.156,3.176 1.153,5.484 4.328,4.523 2.598,-4.332 7.121,-3.945 10.008,-7.316 l 0,0"
         style="fill:#231f20;fill-opacity:1;fill-rule:nonzero;stroke:none"
         id="path27263" /><path
         d="m 241.008,362.457 c 2.5,-2.598 4.906,-8.469 2.5,-10.105 -5.485,-0.192 -5.867,6.738 -11.543,6.351 -3.367,3.082 -8.277,7.895 -4.524,11.84 6.254,-0.48 7.215,-7.699 13.567,-8.086 l 0,0"
         style="fill:#231f20;fill-opacity:1;fill-rule:nonzero;stroke:none"
         id="path27265" /><path
         d="m 656.66,364.191 c -7.601,-7.121 -17.512,-2.984 -26.941,-2.793 2.789,14.629 17.898,-1.925 25.98,7.317 0.574,-1.348 1.153,-2.793 0.961,-4.524 l 0,0"
         style="fill:#231f20;fill-opacity:1;fill-rule:nonzero;stroke:none"
         id="path27267" /><path
         d="m 229.172,352.352 c 2.598,-1.539 -0.574,-2.696 -0.77,-4.332 -5.289,-2.118 -8.851,8.855 -16.355,6.355 -2.309,1.73 -3.176,3.945 -0.77,6.254 7.696,0.961 12.797,-3.754 17.895,-8.277 l 0,0"
         style="fill:#231f20;fill-opacity:1;fill-rule:nonzero;stroke:none"
         id="path27269" /><path
         d="m 624.234,351.582 c 0.579,-3.176 -0.382,-6.254 -3.558,-7.316 -6.543,7.316 -17.321,-2.887 -23.477,5.586 2.598,11.738 16.742,3.75 24.438,3.558 1.347,0.387 1.828,-1.25 2.597,-1.828 l 0,0"
         style="fill:#231f20;fill-opacity:1;fill-rule:nonzero;stroke:none"
         id="path27271" /><path
         d="m 605.281,337.242 c 1.25,-2.597 -1.734,-2.597 -2.504,-3.754 -11.64,2.5 -24.824,-1.156 -36.078,3.754 -1.347,2.5 0.383,6.641 4.52,7.024 10.875,-3.657 23.476,-3.27 34.062,-7.024 l 0,0"
         style="fill:#231f20;fill-opacity:1;fill-rule:nonzero;stroke:none"
         id="path27273" /><path
         d="m 562.176,323.672 c 4.906,1.922 6.734,-3.176 9.91,-5.391 -6.156,-2.308 -16.356,0 -23.477,2.598 -7.312,0.387 -16.164,-0.961 -20.687,4.523 -0.574,2.407 0.965,4.141 2.793,4.524 8.851,-6.063 23.187,1.156 31.461,-6.254 l 0,0"
         style="fill:#231f20;fill-opacity:1;fill-rule:nonzero;stroke:none"
         id="path27275" /><path
         d="m 491.938,202.113 c -2.407,-18.097 -12.797,-32.531 -15.204,-50.433 -0.769,-8.664 8.469,-12.032 4.332,-19.828 -8.66,-17.997 -28.769,-32.145 -36.753,-52.2622 -7.7,-11.5507 -10.106,-26.5625 -17.129,-37.8242 -4.618,-3.8515 -7.696,-12.1289 -12.602,-15.3047 0.191,4.3321 -3.562,10.3946 -8.082,11.8399 -28.578,11.3555 -58.02,-0.1914 -79.09,-13.668 6.543,10.1055 3.559,22.9063 -0.965,31.5703 -2.98,3.3672 -6.347,6.2539 -10.871,6.2539 15.203,26.1797 46.184,36.4766 70.239,52.262 21.07,7.797 41.757,19.636 65.714,18.094 11.067,10.972 11.45,26.375 16.934,39.558 2.019,10.875 8.273,19.348 10.875,29.742 4.328,2.789 7.887,-1.347 12.602,0 l 0,0"
         style="fill:#f47216;fill-opacity:1;fill-rule:nonzero;stroke:none"
         id="path27277" /><path
         d="m 474.813,121.555 c -1.637,-0.485 -3.657,-0.867 -4.813,-0.867 0,-1.446 -5.484,-6.833 -7.504,-6.833 0,-1.347 -0.672,0 -0.672,-1.347 -1.347,0 -4.043,-1.348 -4.715,-2.024 l 0,-0.671 c -3.367,-2.696 -12.894,-3.465 -17.703,-3.465 0,-0.676 -6.062,-4.719 -6.738,-5.391 l 0,-0.676 c 0,0 -2.691,-2.0193 -3.367,-2.0193 0,-2.0195 -11.547,-10.2031 -12.891,-10.2031 0,-1.3477 -4.137,-4.7148 -4.812,-4.7148 0,-1.3477 -0.672,0 -0.672,-1.3477 l -2.024,-0.6719 0,-0.6758 c -0.672,-0.7695 -3.367,-2.789 -4.711,-2.789 l -0.675,-1.3477 c -2.02,0 -9.524,-5.3906 -10.2,-7.414 l -0.671,-0.6719 c -0.676,0 -2.696,-0.6758 -2.696,-2.1172 -2.019,0 -2.695,-4.043 -4.808,-4.043 -0.676,-0.6718 -0.676,-2.0195 -2.024,-2.0195 0,-1.3477 -6.058,-10.8789 -6.734,-10.8789 0,-2.0195 -6.832,-6.7344 -8.18,-7.4102 0,-0.0976 0,-0.1914 0,-0.289 12.317,2.2148 25.402,1.7343 38.297,-3.3672 2.211,-0.7695 4.328,-2.5977 5.773,-4.9102 l 0,1.0586 0.672,0 c 0,0.6758 0,2.6953 1.442,2.6953 0,0.6758 0.676,2.6953 0.676,2.6953 l 0.671,0 c 0,0.6758 0.676,2.1172 1.348,2.1172 l 0,1.3477 c 0.672,0 1.348,1.3476 2.02,2.0234 l 0,2.0196 0.675,0 c 1.348,2.0195 2.692,10.2031 2.692,12.8984 0.676,0 2.695,3.3672 2.695,4.7148 1.445,0 1.445,1.3477 2.117,1.3477 0,6.1602 10.778,11.5508 10.778,17.707 0.671,0 3.461,4.043 3.461,5.3907 2.023,0 2.695,3.371 4.714,3.371 0,0.6719 1.348,2.1172 1.348,2.7891 1.348,0 1.348,2.6953 3.367,2.6953 l 0.676,0.6719 c 0,1.3474 1.441,2.0234 2.117,2.0234 l 0,0.672 c 1.828,1.543 4.426,2.601 7.313,3.273 4.711,5.582 9.621,11.071 13.758,16.653"
         style="fill:#c17030;fill-opacity:1;fill-rule:nonzero;stroke:none"
         id="path27279" /><path
         d="m 384.656,183.246 c -3.367,-9.141 -0.191,-17.324 -6.347,-25.215 0.769,-14.246 21.839,-7.508 25.207,-20.691 0.769,-2.602 2.597,-4.527 2.789,-7.317 -21.649,-9.433 -41.563,-22.234 -62.922,-32.2417 -12.223,-8.6641 -19.34,-24.4454 -35.024,-24.4454 -2.214,-3.3711 -5.582,-6.9336 -10.105,-6.3554 -6.25,6.5468 -14.91,2.6015 -24.149,3.5625 -1.828,-2.1172 -5.578,-3.1758 -7.312,-2.5039 -7.313,-6.3516 -12.797,-11.836 -20.688,-17.1289 2.793,11.5468 14.336,20.5937 9.817,34.2617 -2.695,7.0273 -15.301,7.2187 -14.336,14.3398 29.152,25.0273 64.367,35.2263 99.004,46.6793 9.047,9.434 28.098,1.926 26.941,20.887 8.66,3.754 0.961,22.617 13.567,16.168 l 3.558,0 0,0"
         style="fill:#f47216;fill-opacity:1;fill-rule:nonzero;stroke:none"
         id="path27281" /><path
         d="m 366.953,160.727 c 0.578,-0.192 1.25,-2.118 1.926,-2.118 0,-2.023 1.348,-6.738 2.019,-8.757 2.02,-7.508 -8.082,-14.918 -12.121,-19.059 l -1.347,0 c -0.676,-1.348 -4.043,-3.367 -6.063,-3.367 -3.367,-7.508 -20.398,-8.856 -26.461,-14.246 -1.343,-1.348 -2.691,-2.696 -4.808,-3.367 0,-2.024 -7.41,-6.836 -9.43,-6.836 -2.695,-2.696 -6.832,-2.696 -10.199,-4.0434 l 0,-0.6719 c -0.672,-0.6758 -4.715,-2.0195 -4.715,-3.3672 l -1.348,0 c -1.441,-1.4453 -4.136,-2.7929 -6.828,-2.7929 0,0 -2.023,-1.3477 -2.695,-1.3477 l 0,-1.3476 -1.348,-0.6719 0,-3.3711 -1.347,-0.6719 0,-1.3476 c -1.348,0 -2.79,-2.6954 -4.137,-2.6954 0,-0.7695 -0.672,-2.789 -1.348,-2.789 l 0,-2.6953 -0.672,0 0,-2.0235 c -0.867,-0.5781 -1.539,-1.539 -2.023,-2.6953 0,0 0,0.0977 0.097,0.0977 9.239,-0.961 17.899,2.9843 24.149,-3.5625 4.523,-0.5782 7.891,2.9843 10.105,6.3554 15.684,0 22.801,15.7813 35.024,24.4454 21.359,10.0077 41.273,22.8087 62.922,32.2417 -0.192,2.79 -2.02,4.715 -2.789,7.317 -3.368,13.183 -24.438,6.445 -25.207,20.691 6.156,7.891 2.98,16.074 6.347,25.215 l -3.558,0 0,0 c -12.606,6.449 -4.907,-12.414 -13.567,-16.168 0.098,-2.598 -0.097,-4.715 -0.578,-6.351"
         style="fill:#c17030;fill-opacity:1;fill-rule:nonzero;stroke:none"
         id="path27283" /><path
         d="m 358.777,145.711 c -1.347,0 -3.367,-0.672 -4.714,-0.672 0,-0.676 -5.391,-2.695 -6.739,-2.695 -1.441,-1.348 -11.543,-8.856 -13.566,-8.856 0,-3.371 -14.336,-8.086 -17.028,-8.758 l 0,-0.675 c -0.675,-0.672 -2.695,-1.348 -3.367,-2.02 -0.675,0 -2.695,-0.676 -2.695,-0.676 l 0,-0.671 c -0.672,0 -2.02,-0.77 -2.02,-1.446 -2.793,0 -12.218,-4.039 -12.894,-6.062 -0.672,0 -2.117,-1.348 -2.789,-1.348 0,-1.348 -4.715,-4.043 -6.063,-4.043 -0.672,-2.117 -15.586,-16.3593 -18.281,-16.3593 0,-2.6953 -8.851,-5.3906 -10.871,-7.4141 l -1.348,0 c -0.769,-1.9218 -3.175,-6.0625 -5.964,-9.4297 -1.829,-8.2773 -8.469,-15.3984 -10.391,-23.6757 7.793,5.2929 13.371,10.7773 20.683,17.1289 1.735,-0.6719 5.485,0.3867 7.219,2.5039 0.672,-0.0977 1.442,-0.0977 2.117,-0.0977 0.575,0.8672 1.153,1.8281 1.922,2.6953 l 0.676,0 c 0,0 0.672,2.0235 0.672,2.6953 1.348,1.3477 4.043,4.8125 4.043,6.1602 1.344,0 0,0.6758 1.344,0.6758 l 0,1.3437 c 1.347,1.3477 6.16,6.7383 6.16,8.7617 1.347,0 1.347,1.4415 1.347,1.4415 l 0.672,0 c 0.676,0.6757 1.348,2.0234 2.696,2.6953 0,2.0195 10.871,10.2029 13.566,10.2029 0,5.391 13.566,6.738 13.566,10.106 l 1.348,0 c 2.789,2.695 6.828,2.695 9.524,4.812 l 0,0.672 c 0,0 2.019,0.676 2.695,0.676 0,1.347 0.672,0 0.672,1.347 1.347,0 3.465,2.02 4.136,2.696 l 0,0.672 c 1.348,0.675 4.043,2.695 5.391,3.367 l 0,0.676 c 1.344,1.347 6.828,3.464 8.852,3.464 0,0.672 2.019,0.672 2.691,0.672 0,0 3.371,2.696 4.043,2.696 l 0.672,0.675 0.676,0.672 0,1.348 0.672,0 0,3.371 -0.672,0.672 -0.676,0.676 -0.672,0 2.695,-0.676"
         style="fill:#f79246;fill-opacity:1;fill-rule:nonzero;stroke:none"
         id="path27285" /><path
         d="m 358.969,137.34 c 1.25,-3.754 -2.985,-4.719 -4.617,-7.317 -10.778,-1.347 -20.399,-9.625 -30.696,-14.339 -14.914,-9.625 -25.593,-20.309 -39.543,-30.5121 -1.347,0 -3.754,-0.3867 -3.562,1.7344 0.387,6.7343 6.738,9.8164 10.875,13.3747 20.492,15.785 42.14,31.09 63.789,41.578 1.926,-0.961 4.715,-1.343 3.754,-4.519 l 0,0"
         style="fill:#231f20;fill-opacity:1;fill-rule:nonzero;stroke:none"
         id="path27287" /><path
         d="m 443.254,109.328 -0.77,-4.519 0,0 C 423.625,94.6055 406.305,78.0508 390.336,62.457 c -3.176,-1.7304 -0.965,-7.2187 -5.484,-7.0234 -2.598,0.3828 -6.739,-1.2539 -7.122,2.5 -0.191,6.1602 7.891,6.1602 9.813,10.8789 16.934,13.375 33.098,29.3516 51.379,43.3085 2.215,0.578 3.945,-0.961 4.332,-2.793 l 0,0"
         style="fill:#231f20;fill-opacity:1;fill-rule:nonzero;stroke:none"
         id="path27289" /><path
         d="m 98.3203,792.102 c 0.1914,0 0.3828,0 0.4805,0 0.8672,0.769 2.4062,1.539 2.4062,2.308 0.77,0 2.406,-2.308 2.406,-3.176 l 1.539,0 c 0,2.407 3.176,5.582 3.176,8.758 0,-0.769 0.863,-1.539 0.863,-2.406 0.77,0.867 4.715,4.043 4.715,5.586 l 1.637,0.769 1.539,-1.543 c 8.754,3.95 8.754,15.883 14.336,21.465 0,-1.636 2.406,-3.945 2.406,-5.582 2.309,0 7.891,7.989 7.891,9.528 0,-3.176 0,-7.121 2.402,-9.528 2.406,5.582 7.891,21.461 7.891,27.043 1.637,1.543 4.812,5.582 7.215,6.356 0,-2.407 1.543,-5.582 1.543,-7.989 2.402,0 7.984,6.352 10.39,7.215 l 0,-5.582 c 3.946,1.543 7.117,9.531 11.832,11.938 0,-3.176 0.867,-7.219 3.176,-9.625 3.176,0 7.215,4.812 8.758,6.449 0,-1.637 0.863,-3.18 0.863,-4.043 1.539,0.863 11.836,12.703 15.875,12.703 l 0,-5.484 c 5.485,1.539 12.703,3.176 16.649,7.121 0,-1.637 0.769,-2.406 0.769,-3.176 4.039,0 11.16,3.945 15.106,4.715 0,-1.539 1.632,-3.176 1.632,-4.715 6.352,6.352 13.473,10.297 22.227,10.297 0,-2.406 0.77,-7.891 1.539,-10.297 l 15.109,0.77 0,-2.407 c 2.309,0 4.711,0.676 7.313,1.446 -2.695,1.343 -3.852,4.039 -4.141,7.218 -6.925,0 -6.543,7.7 -10.871,10.875 -3.945,-2.023 -8.66,-3.754 -12.605,-0.964 -2.692,2.312 -8.657,-0.864 -10.004,2.695 1.347,6.547 -5.102,3.945 -8.852,4.523 -4.715,8.278 -11.066,-0.191 -16.359,-0.961 -4.52,1.539 -1.922,7.121 -2.5,9.047 l 0,0 c -5.195,0.192 -4.617,-7.508 -10.102,-6.258 -8.082,10.973 -11.449,-6.929 -18.859,-6.351 -4.523,0.387 -2.02,5.488 -2.598,8.086 l 0,0 -10.777,-9.817 -2.789,1.731 0,0 c -5.676,10.301 -10.008,-6.832 -17.125,-6.254 -1.348,1.922 -4.91,3.078 -3.563,6.254 -5.484,-1.731 -6.636,-10.199 -13.566,-10.777 -2.211,1.73 -3.945,4.523 -4.523,6.253 -7.887,-1.539 -5.965,-15.976 -15.2,-12.609 -11.16,-7.699 -17.511,-22.23 -19.82,-35.992 -4.426,-11.649 -7.41,-23.582 -9.4297,-35.613"
         style="fill:#e1b61e;fill-opacity:1;fill-rule:nonzero;stroke:none"
         id="path27291" /><path
         d="m 306.723,858.031 c -0.289,-0.48 -0.77,-1.058 -1.348,-1.636 0,-0.77 -0.77,-3.946 -1.633,-3.946 0,-3.176 -1.543,-7.988 -1.543,-10.301 0.77,0 3.176,-3.175 4.715,-3.175 l 0,-1.637 c -1.539,-1.539 -3.172,-3.945 -4.715,-4.715 0,-2.406 1.543,-4.812 1.543,-7.219 0.863,0 2.403,-3.945 4.039,-3.945 0,-1.539 -0.867,-5.582 -2.406,-5.582 0,-5.582 8.758,-6.352 12.703,-6.352 l 0.77,-0.769 c -0.77,-2.406 -4.715,-3.949 -7.121,-6.356 0,-4.812 8.753,-3.175 10.293,-6.351 -2.403,-2.406 -3.942,-3.945 -7.887,-5.582 0,-0.77 -1.637,-2.406 -2.406,-3.176 l 0,-1.539 c 1.539,-0.867 7.89,-3.176 10.293,-3.176 0,-4.043 -8.754,-10.394 -2.403,-13.57 l 0,-4.719 c -0.769,0 -2.308,-1.637 -3.176,-1.637 1.637,-4.714 4.039,-10.296 4.039,-15.878 -5.578,0 -12.699,0 -17.511,-0.77 0,-2.406 0.773,-6.352 0.773,-8.758 3.172,0 7.985,-15.113 11.16,-18.289 l 0,-3.176 c -3.945,0 -8.757,-3.175 -13.472,-3.175 0,-3.946 2.312,-9.528 2.312,-12.704 l 1.633,-0.769 c 0,-1.637 -0.77,-4.043 -0.77,-4.813 -0.863,0 -2.406,-0.769 -4.039,-0.769 l -3.175,-3.176 c 0,-4.812 1.73,-9.625 3.464,-14.246 1.54,0.672 3.172,1.156 4.907,1.348 1.347,6.254 1.347,9.625 1.73,16.074 1.828,3.367 6.16,1.25 9.141,1.828 2.887,4.523 -2.598,12.414 4.523,15.301 3.078,1.058 4.715,-1.731 7.024,-2.696 -0.387,9.051 -2.309,17.329 -5.293,25.219 0.578,3.078 4.715,4.524 7.121,2.696 -1.828,9.625 0.578,17.707 -4.332,26.179 0.195,5.196 8.851,0.574 6.258,7.121 -4.715,7.508 -10.008,17.133 -5.489,26.18 1.926,-0.195 4.715,0.578 6.258,-0.965 -1.543,9.047 -11.738,12.223 -14.34,20.695 3.563,5.102 7.313,1.922 12.606,2.696 0.191,1.828 -0.192,3.367 -1.731,4.523 -1.445,7.699 -4.812,14.629 -9.91,20.692 -4.523,4.523 -7.89,11.261 -12.605,15.015"
         style="fill:#fff489;fill-opacity:1;fill-rule:nonzero;stroke:none"
         id="path27293" /><path
         d="m 97.4531,729.637 0.5782,1.254 c 0,-2.407 2.4067,-5.582 2.4067,-7.125 l 1.539,0 c 0.867,0.769 2.406,2.312 2.406,3.175 0,-2.406 0.769,-4.812 2.402,-6.351 l 3.176,3.176 c 1.539,-3.176 1.539,-7.989 3.176,-11.164 6.351,13.476 -2.407,-5.582 11.929,-5.582 0,1.636 0.77,2.406 0.77,3.945 0,-1.539 3.945,-7.121 5.582,-7.121 0.77,0.769 1.539,2.406 1.539,3.176 l 0.867,0.769 c 1.539,0 5.485,-10.297 5.485,-11.066 0,2.406 0.863,5.582 1.632,7.121 0,-3.176 2.407,-6.352 2.407,-8.758 l 1.539,0 c 0,0.867 0.769,1.637 0.769,2.406 l 1.637,0.77 c 0.77,-1.539 2.406,-4.715 3.945,-6.352 l 0,4.043 0.77,0.77 c 3.176,0 4.812,-9.532 7.988,-9.532 0,-0.769 2.402,-2.406 3.942,-3.175 0,-0.77 0.867,-2.407 0.867,-3.946 -0.578,-0.578 -1.153,-1.25 -1.731,-2.019 -11.836,6.16 -28.097,2.211 -38.199,11.933 l 0,0 -24.246,18.961 0,0 c -1.3477,6.93 -2.4063,13.86 -3.1759,20.692 l 0,0 z m 70.9099,-56.688 c 0.387,0 0.77,-0.097 1.157,-0.097 0,-0.481 -0.098,-1.442 -0.387,-2.696 -0.192,0.965 -0.481,1.926 -0.77,2.793 l 0,0 z m -0.383,-11.261 c 0.383,-0.579 0.77,-1.157 0.77,-1.54 2.406,0 4.715,-3.175 5.582,-3.175 0,-7.028 0.77,-13.282 -0.773,-20.309 -4.231,1.059 -7.887,2.887 -9.907,7.508 0.672,5.871 0.864,12.801 4.328,17.516"
         style="fill:#ebe015;fill-opacity:1;fill-rule:nonzero;stroke:none"
         id="path27295" /><path
         d="m 78.2109,654.566 -2.4062,-3.945 -0.7695,-0.769 -1.6368,0 c -0.7695,-0.774 -2.4023,-2.407 -3.1718,-2.407 0,-1.636 -0.7735,0 -0.7735,-1.636 -1.6328,0 -3.1718,-1.543 -4.8086,-1.543 0,-0.77 -0.7695,-1.637 -0.7695,-2.407 -1.5391,0 0,-0.769 -1.5391,-0.769 0,-0.77 -0.8671,-2.406 -0.8671,-3.945 2.4062,-0.868 4.0429,-1.637 7.2148,-1.637 l 0.7695,0.769 0,0.868 0.7735,0 0,0.769 0.7695,0 0,0.77 0.8633,0.769 c 0.7695,0 2.3086,0.867 3.1758,0.867 0,0.77 5.4843,3.946 6.3515,3.946 l 0.7696,0.769 c 0,0.774 0.7695,1.637 1.539,2.41 0,1.633 1.6367,7.121 0.8672,8.758 l -0.8672,0.77 -2.3086,0 -0.8672,-1.543 -0.7695,-0.864 -1.5391,0"
         style="fill:#ffffff;fill-opacity:1;fill-rule:nonzero;stroke:none"
         id="path27297" /><path
         d="m 280.746,616.453 12.699,-20.598 c 1.539,0 6.352,3.176 9.524,3.176 0,-3.176 1.543,-7.988 1.543,-11.164 l 1.633,-1.539 20.687,0 c 0,-3.176 -1.637,-7.988 -1.637,-11.164 0,0 3.176,-4.812 3.176,-6.355 7.988,0 52.34,-15.879 53.977,-19.055 -1.637,-3.176 -1.637,-6.352 -1.637,-9.527 1.637,0 4.812,-1.637 7.988,-1.637 0,-1.539 6.352,-3.176 6.352,-4.719 l 27.035,-1.633 1.539,-1.543 c 0,-3.269 6.352,-6.449 6.352,-7.988 4.808,0 12.699,-3.176 17.511,-3.176 l 1.539,-1.636 c 0,-7.891 14.336,-14.243 20.684,-14.243 0,-3.175 11.164,-12.707 14.336,-15.882 l 7.891,0 1.636,-1.637 1.539,-1.539 c 0,-7.891 6.352,-7.891 11.16,-12.703 l 0,-6.352 c 33.387,-11.07 63.598,-14.246 100.067,-14.246 l 1.633,1.539 0,1.637 1.543,1.539 c 3.269,0 20.683,-1.539 23.859,0 l 0,1.637 1.156,0 c -24.824,8.085 -50.996,9.722 -77.648,11.937 l 0,0 -1.922,1.731 0,0 c -5.004,-1.54 -8.469,0 -13.473,-1.731 -6.058,3.945 -13.179,8.66 -15.297,16.07 -33.097,34.266 -63.597,76.805 -109.878,89.125 -15.973,5.004 -29.344,15.977 -47.625,15.207 -21.364,0.77 -38.297,12.414 -59.368,14.536 -8.273,4.234 -17.605,5.867 -25.496,10.679 -0.48,-1.058 -1.347,-1.058 -3.078,1.254"
         style="fill:#fff59d;fill-opacity:1;fill-rule:nonzero;stroke:none"
         id="path27299" /><path
         d="m 205.695,344.555 c 8.95,0.195 15.301,-7.504 25.5,-7.504 0,-2.696 9.524,-8.086 12.219,-8.086 0,-2.695 20.399,-20.406 23.09,-20.406 0,-6.735 20.398,-9.528 20.398,-16.266 l 2.696,0 1.347,-2.691 c 1.344,0 2.692,-1.348 4.039,-1.348 0,-1.348 2.789,-2.793 4.137,-2.793 0,-2.695 9.43,-6.738 10.875,-8.086 l 0,-1.348 c 5.387,-4.136 17.606,-9.527 20.301,-15.011 8.176,0 19.051,-8.086 27.133,-10.782 2.691,-1.347 8.082,-2.789 10.773,-2.789 13.567,-5.39 29.828,-5.39 44.84,-9.433 9.426,-2.793 47.434,-9.528 56.957,-4.141 l 0,1.348 c 14.914,0 24.441,8.183 39.352,8.183 0,1.348 2.695,2.696 4.14,2.696 l 0,1.347 c 1.344,1.442 6.735,2.789 8.082,2.789 0,2.696 1.344,0 1.344,2.696 l 4.141,1.347 0,1.348 c 1.343,0 5.386,2.695 5.386,4.043 l 4.039,0 0,1.348 c 2.793,1.441 8.18,2.789 10.875,5.484 l 2.692,0 c 0,2.695 12.222,10.875 13.57,10.875 0,12.227 32.613,16.266 32.613,25.797 2.696,0 5.391,5.387 6.832,6.734 l 2.696,0 c 0,2.793 2.695,4.141 4.039,4.141 l 0,1.348 2.695,2.695 1.348,0 c 0,0 4.136,5.387 4.136,6.734 4.043,2.793 10.872,19.059 16.262,19.059 0,1.347 1.348,2.695 1.348,4.043 2.691,0 9.523,9.527 10.871,10.875 l 0,2.695 31.172,12.512 c -6.735,-13.379 -8.274,-26.469 -16.453,-39.559 -20.012,-25.406 -42.043,-47.64 -67.446,-64.004 -13.855,-9.625 -28.574,-21.656 -41.371,-33.3 -7.312,-0.383 -12.027,-6.45 -18.09,-9.817 -3.175,-6.351 -11.835,-2.598 -15.203,-9.816 -14.527,-10.684 -37.621,-2.215 -53.109,-7.317 -9.527,-1.73 -20.496,12.032 -28,1.735 1.156,-6.641 7.699,-6.641 12.605,-8.856 -45.894,-12.992 -100.257,-9.816 -137.492,17.903 -46.859,25.89 -81.687,63.039 -109.109,107.218 -7.602,6.641 6.351,10.875 1.73,16.36"
         style="fill:#efe411;fill-opacity:1;fill-rule:nonzero;stroke:none"
         id="path27301" /><path
         d="m 202.52,329.734 c 0.484,0.192 0.964,0.383 1.543,0.579 l 13.566,-5.489 0,-1.347 c 0,0 5.484,-4.039 6.828,-4.039 l 1.348,-1.348 c 0,-1.348 1.347,-2.695 1.347,-4.043 2.696,-1.348 8.18,-6.836 9.528,-9.527 l 1.343,0 c 1.348,-2.696 16.262,-14.918 16.262,-16.266 1.348,0 19.051,-9.531 21.746,-9.531 1.348,-2.696 8.176,-5.485 10.871,-6.832 l 0,-1.348 c 1.348,-1.348 5.387,-6.738 9.528,-6.738 6.734,-14.918 50.125,-19.055 50.125,-29.934 5.484,0 22.996,-12.223 29.828,-13.57 16.262,-5.387 40.699,1.347 56.961,-4.043 l 0,-1.344 c 0.769,-0.387 3.269,-0.676 6.636,-0.867 -0.671,-0.481 -1.347,-1.25 -2.019,-2.117 1.156,-6.641 7.699,-6.641 12.605,-8.856 -45.894,-12.992 -100.257,-9.816 -137.492,17.903 -46.859,25.89 -81.687,63.039 -109.109,107.218 -0.578,0.481 -1.059,1.059 -1.445,1.539 l 0,0 z M 452.008,213.949 c 5.773,0 10.68,0.387 11.258,0.965 l 0,1.344 c 2.695,1.347 16.261,1.347 18.953,1.347 0,1.348 2.695,2.696 4.043,4.043 2.789,0 4.136,1.446 6.832,1.446 1.347,1.347 5.386,4.043 8.176,5.39 9.429,0 17.609,6.735 24.343,6.735 l 1.446,1.445 0,1.348 1.343,1.347 c 1.348,0 4.043,2.696 5.391,4.043 l 4.039,0 c 0,2.696 2.793,2.696 4.137,2.696 l 1.347,1.347 1.348,2.789 c 4.043,0 10.871,2.696 13.566,2.696 0,2.695 1.348,0 1.348,2.695 1.348,0 2.695,1.348 2.695,2.695 1.348,0 2.79,2.696 5.485,2.696 l 1.344,2.789 1.347,1.347 c 2.696,0 4.043,2.696 5.391,4.043 l 4.137,0 c 0,1.348 4.039,2.696 5.386,4.043 l 0,1.442 c 1.348,1.347 6.832,4.043 6.832,6.738 1.348,0 2.696,1.348 4.039,1.348 0,1.347 1.348,2.695 1.348,4.14 4.043,0 6.832,12.125 12.219,12.125 0,2.793 2.695,4.141 4.043,4.141 l 0,1.348 c 1.347,1.343 10.871,5.386 10.871,8.179 1.348,0 4.137,2.696 5.484,2.696 l 0,2.695 1.348,1.348 1.348,0 0,1.347 12.218,9.528 0,2.695 c 1.348,0 4.043,4.043 5.387,5.484 l 0,2.696 c 1.348,0 4.141,4.042 5.484,5.39 l 0,2.695 c 6.739,6.735 11.739,11.258 17.223,14.243 -3.559,-9.817 -5.965,-19.442 -12.027,-29.067 -20.012,-25.406 -42.043,-47.64 -67.446,-64.004 -13.855,-9.625 -28.574,-21.656 -41.371,-33.3 -7.312,-0.383 -12.027,-6.45 -18.09,-9.817 -3.175,-6.351 -11.835,-2.598 -15.203,-9.816 -14.527,-10.684 -37.621,-2.215 -53.109,-7.317 -4.523,-0.867 -9.332,1.735 -13.953,3.754"
         style="fill:#fdd605;fill-opacity:1;fill-rule:nonzero;stroke:none"
         id="path27303" /><path
         d="m 239.758,93.1602 c 0.48,0.8671 1.25,1.9257 1.73,2.4062 0.676,0 2.02,0.6758 2.02,1.3477 l 1.347,0 c 0.676,0.6718 2.02,1.3476 2.02,2.0195 1.348,0 13.566,4.0434 13.566,5.3904 2.696,0 5.391,2.793 7.508,2.793 0,2.02 16.934,10.778 19.629,11.453 1.344,0.672 4.039,1.348 5.387,2.118 l 0,0.671 c 2.117,1.348 10.871,6.067 13.566,6.067 0,0.672 1.442,1.347 2.789,1.347 1.348,1.344 6.063,2.02 7.41,3.368 l 0,0.672 c 2.692,2.121 13.567,6.835 17.028,6.835 0,0.672 2.023,1.348 2.695,1.348 1.348,1.348 11.547,8.856 13.567,8.856 0,0.671 0.675,1.343 0.675,2.019 1.344,0 0,0.672 1.344,0.672 0,0.195 0,0.387 0.098,0.578 -5.871,-1.73 -12.989,-2.117 -17.61,-6.93 -34.636,-11.453 -69.945,-21.652 -99.004,-46.6793 -0.48,-2.9844 1.54,-4.8125 4.235,-6.3515"
         style="fill:#f79246;fill-opacity:1;fill-rule:nonzero;stroke:none"
         id="path27305" /><path
         d="m 447.68,132.91 c -1.25,-1.156 -2.985,-2.793 -3.465,-2.793 0,-1.344 -0.672,0 -0.672,-1.344 -4.813,0 -13.566,-4.718 -18.379,-6.066 -2.695,-0.672 -18.953,-0.672 -18.953,-6.16 -8.18,0 -16.262,-12.223 -24.441,-12.223 0,-0.672 -9.524,-7.4099 -10.872,-7.4099 0,-1.3477 -2.695,-2.6953 -2.695,-3.4649 -0.672,0 -2.019,-1.3476 -2.019,-2.0195 -0.672,0 -2.692,-2.6953 -3.368,-3.3711 l -0.671,0 c 0,0 0,-1.3477 -1.348,-1.3477 0,-2.6953 -5.387,-3.3671 -5.387,-5.3867 -0.676,0 -2.695,-2.1172 -3.371,-2.1172 0,-2.0234 -4.039,-2.6953 -4.715,-3.3711 -2.113,0 -5.484,-2.6953 -6.156,-4.0429 -3.367,-4.8125 -9.813,-10.0078 -15.492,-14.8203 -2.789,3.0781 -5.867,5.4843 -10.102,5.4843 15.203,26.1797 46.184,36.4766 70.239,52.262 19.917,7.414 39.449,18.383 61.867,18.191"
         style="fill:#f79246;fill-opacity:1;fill-rule:nonzero;stroke:none"
         id="path27307" /><path
         d="m 448.93,127.426 c -4.039,-2.024 -8.082,-4.719 -12.895,-4.719 -4.711,-4.812 -9.426,-4.812 -14.91,-6.832 l 0,-0.672 c -0.676,0 -4.043,-1.348 -4.715,-1.348 -2.023,-2.023 -8.18,-10.878 -11.547,-10.878 0,-4.7153 -15.586,-10.8754 -15.586,-16.9379 -1.347,0 -4.812,-3.3672 -4.812,-4.043 -2.695,0 -10.777,-7.5078 -12.219,-10.2031 -2.695,-4.043 -9.43,-8.8555 -12.797,-12.8946 l -0.672,0 -9.429,-10.8789 -0.676,0 c -2.117,-2.6914 -4.809,-6.0625 -7.504,-8.1797 0,-1.3476 -3.367,-3.3671 -4.039,-4.0429 l -1.348,0 c 0,-1.3477 -2.023,-2.6953 -3.465,-2.6953 0,-0.5743 -1.347,-2.0196 -2.214,-2.5 -0.286,-0.9649 -0.575,-1.9258 -1.055,-2.8868 0,-0.289 -0.098,-0.5781 -0.098,-0.7695 l 0.481,-0.9648 c 6.543,3.9453 13.758,7.6992 21.55,10.6836 0.579,1.25 1.735,3.3672 1.735,3.8515 l 0.672,0 c 0.676,0.7696 1.347,3.4649 2.695,3.4649 0,1.3476 2.695,2.6914 2.695,2.6914 l 0.672,0.6758 c 0,1.3476 2.696,2.6953 2.696,4.0429 1.347,0 1.347,1.3477 1.347,1.3477 l 0.672,0 c 0,0.6719 1.348,2.1172 2.02,2.1172 l 0,0.6718 c 0.675,0.6758 2.695,2.6954 4.043,2.6954 1.347,2.0234 5.484,4.7148 8.175,6.0625 0,2.0234 7.411,6.8359 8.852,7.5078 l 0,0.6758 c 0,0 2.023,1.3476 2.695,1.3476 0,4.043 12.895,10.1992 12.895,14.918 l 0.672,0.6719 c 2.695,0 6.734,8.8554 7.41,10.2031 l 0.672,0 c 0.675,0.6716 2.117,2.6956 2.789,3.3676 l 1.347,0 c 0,1.347 0.676,0 0.676,1.347 0.672,0 6.059,3.465 6.059,3.465 1.347,0 2.695,0.676 4.14,0.676 l 0.672,1.348 2.02,0.671 0,0.676 8.082,5.387 0,0.676 c 0,0 1.347,0 1.347,1.347 1.446,0 3.465,1.348 5.485,1.348 0.676,0.77 4.043,3.465 5.387,3.465 l 0,4.043 c -0.672,0 -3.368,0 -0.672,0"
         style="fill:#f79246;fill-opacity:1;fill-rule:nonzero;stroke:none"
         id="path27309" /><path
         d="m 472.695,183.727 6.832,0 c 0,-3.368 -0.769,-6.735 -0.769,-10.106 -2.024,-0.769 -3.367,-6.832 -3.367,-8.851 -3.368,-3.372 -3.368,-8.184 -3.368,-12.899 -0.675,0 -0.675,-21.754 -1.347,-23.773 -0.676,-3.368 -1.348,-6.739 -1.348,-10.875 0.383,-0.387 0.77,-0.77 1.25,-1.157 4.137,5.102 7.891,10.204 10.488,15.786 4.137,7.796 -5.101,11.164 -4.332,19.828 2.407,17.902 12.797,32.336 15.204,50.433 l 0,0 c -4.715,-1.347 -8.274,2.789 -12.602,0 -1.543,-6.355 -4.523,-11.937 -7.027,-17.711 0.578,-0.191 0.964,-0.675 0.386,-0.675"
         style="fill:#c17030;fill-opacity:1;fill-rule:nonzero;stroke:none"
         id="path27311" /><path
         d="m 405.441,127.426 c 2.692,1.633 0.192,5.676 -2.503,4.137 l 0,0 c -4.618,-3.079 -8.083,-6.543 -13.278,-8.661 -1.73,-0.769 -3.656,-1.347 -5.195,-2.312 -1.442,-0.961 -2.5,-2.309 -3.848,-3.274 -1.539,-1.054 -3.273,-1.828 -4.906,-2.789 -1.254,-0.769 -2.309,-2.019 -3.656,-2.504 -1.828,-0.769 -3.946,-0.769 -5.774,-1.25 -5.484,-1.636 -9.14,-5.195 -13.953,-7.601 -1.73,-0.867 -3.656,-1.348 -5.195,-2.406 -1.25,-0.8676 -2.02,-2.3129 -3.176,-3.2738 -5.773,-3.7539 -12.891,-6.832 -18.086,-11.1641 -5.965,-5.9687 -15.105,-13.4765 -14.914,-22.8125 0,-0.4804 0.867,-0.4804 1.348,-0.6718 l 0,0 c 2.308,-1.1563 4.617,1.8281 2.886,3.7539 1.539,1.9257 2.789,3.8476 4.231,5.8711 2.793,3.8476 6.543,7.121 9.91,10.4882 4.813,4.1407 11.738,6.9297 17.223,10.5899 1.347,1.0586 2.215,2.5976 3.656,3.5586 1.254,0.8672 2.887,0.9648 4.234,1.6367 4.426,2.3128 8.082,5.9688 12.989,7.3168 2.117,0.671 4.425,0.671 6.449,1.539 1.633,0.672 2.98,1.925 4.426,2.886 1.539,0.965 3.175,1.637 4.714,2.598 1.442,1.063 2.692,2.602 4.231,3.563 1.348,0.867 2.887,1.156 4.332,1.828 5.578,2.215 8.949,5.488 13.855,8.953 l 0,0"
         style="fill:#231f20;fill-opacity:1;fill-rule:nonzero;stroke:none"
         id="path27313" /><path
         d="m 405.441,127.426 c 2.692,1.633 0.192,5.676 -2.503,4.137 l 0,0 c -4.618,-3.079 -8.083,-6.543 -13.278,-8.661 -1.73,-0.769 -3.656,-1.347 -5.195,-2.312 -1.442,-0.961 -2.5,-2.309 -3.848,-3.274 -1.539,-1.054 -3.273,-1.828 -4.906,-2.789 -1.254,-0.769 -2.309,-2.019 -3.656,-2.504 -1.828,-0.769 -3.946,-0.769 -5.774,-1.25 -5.484,-1.636 -9.14,-5.195 -13.953,-7.601 -1.73,-0.867 -3.656,-1.348 -5.195,-2.406 -1.25,-0.8676 -2.02,-2.3129 -3.176,-3.2738 -5.773,-3.7539 -12.891,-6.832 -18.086,-11.1641 -5.965,-5.9687 -15.105,-13.4765 -14.914,-22.8125 0,-0.4804 0.867,-0.4804 1.348,-0.6718 l 0,0 c 2.308,-1.1563 4.617,1.8281 2.886,3.7539 1.539,1.9257 2.789,3.8476 4.231,5.8711 2.793,3.8476 6.543,7.121 9.91,10.4882 4.813,4.1407 11.738,6.9297 17.223,10.5899 1.347,1.0586 2.215,2.5976 3.656,3.5586 1.254,0.8672 2.887,0.9648 4.234,1.6367 4.426,2.3128 8.082,5.9688 12.989,7.3168 2.117,0.671 4.425,0.671 6.449,1.539 1.633,0.672 2.98,1.925 4.426,2.886 1.539,0.965 3.175,1.637 4.714,2.598 1.442,1.063 2.692,2.602 4.231,3.563 1.348,0.867 2.887,1.156 4.332,1.828 5.578,2.215 8.949,5.488 13.855,8.953 l 0,0 z"
         style="fill:none;stroke:#231f20;stroke-opacity:1;stroke-width:0.9;stroke-linecap:butt;stroke-linejoin:miter;stroke-miterlimit:3.8636;stroke-dasharray:none"
         id="path27315" /><path
         d="m 309.996,68.7148 c 0.574,0 1.059,0.1915 1.539,0.4805 l 0,0 c 8.082,8.1797 19.145,12.4141 27.227,20.5977 2.406,2.4062 4.043,4.332 7.312,5.4843 1.828,0.6758 3.754,0.7696 5.485,1.4454 3.175,1.25 6.351,3.6563 9.046,5.5823 3.079,1.636 5.77,2.789 8.852,4.715 5.098,2.886 10.199,4.812 15.395,7.41 l 0,0 c 2.886,1.445 0.671,5.679 -2.118,4.234 -9.718,-4.809 -19.629,-8.949 -28.671,-15.012 -1.348,-0.867 -2.793,-1.925 -4.333,-2.504 -1.73,-0.671 -3.656,-0.671 -5.386,-1.3472 -3.848,-1.4414 -6.063,-3.7539 -8.949,-6.6406 -7.985,-7.9883 -18.954,-12.125 -26.942,-20.211 l 0,0 c -1.73,-1.3476 -0.769,-4.2344 1.543,-4.2344 l 0,0 z m 1.539,0.4805 0,0.0977"
         style="fill:none;stroke:#231f20;stroke-opacity:1;stroke-width:0.9;stroke-linecap:butt;stroke-linejoin:miter;stroke-miterlimit:3.8636;stroke-dasharray:none"
         id="path27317" /><path
         d="m 242.836,45.6133 c 0.48,0 0.961,0.1953 1.348,0.3867 l 0,0 c 1.441,0.9609 3.078,1.8281 4.328,2.9844 1.347,1.25 2.117,2.789 3.367,4.0429 1.348,1.25 2.984,2.211 4.234,3.5586 1.157,1.1563 1.926,2.793 3.176,3.8516 6.156,5.1953 16.356,6.3516 23.668,3.5586 l 0,0 c 3.078,-0.6719 4.234,4.043 1.059,4.7187 -8.274,3.3672 -20.879,1.25 -27.805,-4.621 -1.445,-1.1563 -2.309,-2.8868 -3.656,-4.2344 -1.157,-1.25 -2.696,-2.1172 -3.946,-3.2735 -2.793,-2.789 -3.562,-4.3281 -7.121,-6.5429 l 0,0 c -1.922,-1.3477 -1.058,-4.4297 1.348,-4.4297"
         style="fill:#231f20;fill-opacity:1;fill-rule:nonzero;stroke:none"
         id="path27319" /><path
         d="m 242.836,45.6133 c 0.48,0 0.961,0.1953 1.348,0.3867 l 0,0 c 1.441,0.9609 3.078,1.8281 4.328,2.9844 1.347,1.25 2.117,2.789 3.367,4.0429 1.348,1.25 2.984,2.211 4.234,3.5586 1.157,1.1563 1.926,2.793 3.176,3.8516 6.156,5.1953 16.356,6.3516 23.668,3.5586 l 0,0 c 3.078,-0.6719 4.234,4.043 1.059,4.7187 -8.274,3.3672 -20.879,1.25 -27.805,-4.621 -1.445,-1.1563 -2.309,-2.8868 -3.656,-4.2344 -1.157,-1.25 -2.696,-2.1172 -3.946,-3.2735 -2.793,-2.789 -3.562,-4.3281 -7.121,-6.5429 l 0,0 c -1.922,-1.3477 -1.058,-4.4297 1.348,-4.4297 z"
         style="fill:none;stroke:#231f20;stroke-opacity:1;stroke-width:0.9;stroke-linecap:butt;stroke-linejoin:miter;stroke-miterlimit:3.8636;stroke-dasharray:none"
         id="path27321" /><path
         d="m 459.996,145.809 c 0.094,-7.508 -0.387,-15.692 -1.543,-18.383 l -0.672,0 0,-1.348 -0.672,0 c -0.675,-0.676 -0.675,-4.043 -1.347,-4.719 l -0.676,0 c -3.461,-5.484 -6.156,-13.57 -5.484,-20.402 1.828,-1.25 3.562,-2.5039 5.293,-3.5625 9.14,11.7425 20.3,22.2345 26.171,34.4575 4.137,7.796 -5.101,11.164 -4.332,19.828 1.926,14.722 9.336,27.14 13.282,41.097 -1.348,1.731 -2.793,3.27 -4.426,4.524 -2.024,1.539 -4.332,2.5 -6.738,3.078 -2.789,-9.625 -8.465,-17.805 -10.391,-28.008 -3.559,-8.566 -5.004,-17.996 -8.465,-26.562"
         style="fill:#c17030;fill-opacity:1;fill-rule:nonzero;stroke:none"
         id="path27323" /></g></g></svg>